<?xml version="1.0" encoding="utf-8"?>
<!-- Generator: Adobe Illustrator 25.0.0, SVG Export Plug-In . SVG Version: 6.00 Build 0)  -->
<svg version="1.1" id="Capa_1" xmlns="http://www.w3.org/2000/svg" xmlns:xlink="http://www.w3.org/1999/xlink" x="0px" y="0px"
	 viewBox="0 0 272.9 301.5" style="enable-background:new 0 0 272.9 301.5;" xml:space="preserve">
<style type="text/css">
	.st0{clip-path:url(#SVGID_2_);}
	.st1{clip-path:url(#SVGID_6_);}
	.st2{clip-path:url(#SVGID_10_);}
	.st3{clip-path:url(#SVGID_14_);}
	.st4{clip-path:url(#SVGID_18_);}
	.st5{clip-path:url(#SVGID_22_);}
	.st6{clip-path:url(#SVGID_26_);}
	.st7{clip-path:url(#SVGID_30_);}
	.st8{clip-path:url(#SVGID_34_);}
	.st9{opacity:0.65;}
</style>
<path d="M1928.9-4077.9c-3.2,3.5-2,6.7,8.4,22.7c10.9,16.6,12.7,18.2,17.8,15.4c1.8-1,2.7-2.5,2.9-4.6c0.3-2.5-1.6-5.9-9.9-18.4
	c-5.6-8.5-10.6-15.7-11.3-16.1C1934.7-4080.3,1930.5-4079.7,1928.9-4077.9z"/>
<path d="M1889.2-4054.7c-1.1,1.1-2,3.3-2,4.9c0,3.1,2.7,5.7,10,9.9c1.9,1,8.7,5,15,8.7c17.2,10.2,20.2,11.6,22.9,11
	c3-0.8,5-3.2,5.1-6.3c0-2.5-3.2-5.9-7.7-8.2c-1.5-0.8-5.7-3.2-9.2-5.3c-3.5-2.2-7.8-4.7-9.5-5.7c-1.7-0.9-6.2-3.6-10.1-5.8
	C1894.5-4056.7,1891.8-4057.3,1889.2-4054.7z"/>
<path d="M1615.1-4046.2c-3.5,1.9-4.1,4.6-2.3,10.3c1.7,5.7,1.8,17.2,0.3,22.1c-2.5,7.6-5.6,12.8-10.9,18.1
	c-9.1,9.1-19.5,12.7-33,11.6c-7.6-0.7-7.8-0.7-9.9,2c-2.7,3.5-2.4,5.8,3,24.4c1.2,4.1,2.6,7.9,3.1,8.5c0.4,0.5,0.8,7.1,0.8,14.8
	c0,55.5,17.1,106,45.5,134.3c6.5,6.4,9.1,8.3,12.9,9.4c12.2,3.4,20.1-5.6,16.6-19c-5.7-22.1-6.2-51.8-1-64.5
	c0.4-1.1,1.4-3.6,2.1-5.5c2.6-7.3,6.9-11.9,10.9-11.9c6.4-0.1,12.3,11,15.6,29.4c2.3,13,1.3,31.1-2.7,47.5c-1.8,7.4-2.2,14.9-0.9,18
	c1.3,3.2,7.9,7,12.1,7c4.6-0.1,10.6-3.8,17.9-11.1c18.8-19,34-51.2,40.5-85.4c2-11.2,3.5-26.4,4.1-42.4c0.5-14.4,1.1-19.8,2.6-24.1
	c5.2-15.3,6.2-21,6.2-37.5c0.1-14.3-0.2-16.7-2.2-22.8c-4.2-12-13.8-22.2-26.6-28.1c-8-3.7-19.4-6.5-26.6-6.5
	c-10.9,0-24.1,4.5-34.1,11.6c-2.6,1.8-5.2,3.3-5.9,3.3s-4.2-1.9-7.9-4.3c-8.9-5.8-13.9-7.9-21.4-9.2c-2.1-0.3-4.4-0.8-5-1
	C1618.2-4047.4,1616.5-4047,1615.1-4046.2z"/>
<path d="M1985.7-4046.6c-19.5,4.6-33.6,14.2-39.8,27c-5,10.3-6.1,15.5-6.1,28.4c0,14.4,1,19.7,6.8,37.5c2.1,6.5,2.5,10.1,3.1,26.5
	c0.8,26.3,3.1,41.7,9.5,64c6.6,23,20.1,47.2,34.6,61.9c10.8,11,17.4,13.7,24.4,10.1c7.3-3.8,8.4-8.9,5.1-23.5
	c-4.5-19.9-5.4-36.4-2.6-49.6c1.9-9.2,2.2-10.2,6-18.8c4.7-10.6,12.6-11.3,17.8-1.7c5.9,10.7,8.2,21.6,8.1,38.6
	c0,13.7-0.8,20.1-4.5,35.8c-1.4,6.1-1.5,8.5-0.7,11c3,9,11.7,11.9,21,7.1c5.8-3,22.8-22.1,27-30.4c0.7-1.4,2.4-4.5,3.9-7
	c4.8-8.6,13.7-31.1,16-41c1.7-7.4,3-13.7,4-19c1.7-9.6,3.9-36.1,3.9-47c0-8.2,0.5-11.7,2.1-16c1.2-3,3.2-10.2,4.5-16
	c2.8-12.5,3.3-31.1,0.9-39.9c-5.3-20.1-20.9-33.1-45.3-38c-14.1-2.8-30.5,1.2-43.1,10.6c-2.4,1.8-5,3.3-5.9,3.3
	c-0.8,0-4.4-2-8.1-4.3C2014.6-4046,1998.6-4049.6,1985.7-4046.6z"/>
<path d="M2353.2-4046.2c-22.2,5.1-35.8,16.5-42.2,35.3c-3.5,10-2.7,35,1.4,46.4l1,2.6l14.1,0.7c7.8,0.3,20.5,0.5,28.2,0.3l14-0.3
	l0.6-4c0.7-5,2.1-7.8,5.3-9.9c2.2-1.4,6.2-1.6,29.5-1.6h26.9l3.1,2.5c2.7,2.3,5.4,7.8,5,10.1c-0.6,3.3,0.1,3.4,18.9,3.4
	c10.3,0,23-0.3,28.4-0.7l9.6-0.6l1.2-4.6c0.6-2.5,1.5-6.2,2.1-8.2c1.5-5.8,1.1-27-0.6-33.5c-3-11.5-8.5-19.7-18.4-27.1
	c-9.3-7.1-25.1-12.3-36.6-12.3c-10.7,0.1-24.6,5-34.9,12.4l-4.8,3.4l-7.2-4.7c-9.4-6.2-11.8-7.3-21.6-9.7
	C2369.5-4047.9,2360.5-4047.9,2353.2-4046.2z"/>
<path d="M2694.5-4046.3c-2.8,0.6-5.5,1.4-5.9,1.8c-0.4,0.5-1.4,0.8-2.2,0.8c-2.6,0-13.3,6-18.4,10.3c-6.6,5.5-12.3,14.3-15,23
	c-1.8,5.9-2.2,9.4-2.1,19.7c0.1,7.2,0.8,15.3,1.7,19c2.5,10.7,4.7,18.3,6.2,21.2c1,1.9,1.4,6.4,1.4,15.6c0,20.7,2.7,43.5,7.1,60.7
	c4.1,16.1,3.8,15.2,9.9,30c6.2,14.8,12,24.6,22.2,37.2c12.6,15.5,22.8,20.5,30.9,15c6-4,7.2-9.2,4.5-19.7
	c-3.2-12.9-4.1-20.2-4.1-34.5c0-15.4,0.9-21.5,4.7-31.5c7.7-20.1,17.7-18.4,24.6,4c5.2,17,5.3,38.6,0.1,59c-0.6,2.5-1.3,7.4-1.6,11
	c-0.4,6.3-0.3,6.6,3,9.8c7.4,7.1,15.7,5.1,27.2-6.6c20.4-20.6,36-54.2,41.4-88.7c0.6-3.9,1.5-10,2.1-13.6c0.5-3.6,1-14.7,1-24.7
	s0.4-19,0.9-20c1.6-3,4.9-12.5,6.1-17.7c0.6-2.8,1.6-7,2.2-9.3c0.6-2.4,1.1-10.1,1.1-17c-0.1-10.9-0.4-13.7-2.6-20
	c-4.5-12.9-10.1-19.9-22.1-27.1c-12.5-7.5-29.8-10.9-41-8c-13.5,3.4-17.1,5.1-18.4,8.6c-0.6,1.6-3.2,8.6-5.7,15.8
	c-2.6,7.1-5.3,14.7-6.1,16.8c-0.8,2-1.4,4.2-1.4,4.7c0,0.6,5.1,1,12.9,1c11.5,0,13.1,0.2,15.5,2.1c4.3,3.4,3.5,6.9-4.1,18.9
	c-3.6,5.8-7.2,11.6-7.9,13c-0.8,1.4-4.6,7.4-8.6,13.5c-6.5,9.9-7.6,11-10.5,11.3c-3.7,0.4-8.3-3.3-8.3-6.6c0-1.1,2.3-5.4,5-9.6
	c2.8-4.2,5-7.9,5-8.1s2.5-4.3,5.5-9c3-4.6,5.5-8.9,5.5-9.5s-4.4-1-11.4-1c-9.9,0-11.7-0.3-14-2.1c-3.6-2.9-3.3-7.1,1.5-18.4
	c0.4-1.1,1.5-4,2.3-6.5c0.8-2.5,2.6-7.6,4-11.5c3.7-10,3.5-11.8-1.6-15.3C2725.5-4046.2,2708.6-4049.3,2694.5-4046.3z"/>
<path d="M2979.3-4045.1c-2,2.5-2.1,3.9-2.1,28.8c0,14.3,0.5,29.7,1,34.1c2.5,18.5,3,21.8,6.1,35.2c6.5,29.1,19.9,60.9,36.3,86.3
	c3.8,5.8,7.1,10.7,7.5,11c0.4,0.3,1.8,2.1,3.1,4s2.7,3.7,3,4s2.7,3.2,5.4,6.5c15.6,18.9,46.6,45.5,53.1,45.5
	c4.7,0,26.6-17.2,41.5-32.6c16.8-17.5,28.5-33.1,39.5-52.9c5.8-10.5,7.4-13.8,11.9-24.5c2.7-6.3,5.2-12.3,5.7-13.2
	c0.5-1,0.9-2.7,0.9-3.7c0-1.1,0.5-2.3,1-2.6c0.6-0.3,1-1.7,1-3s0.4-2.6,0.9-2.9c0.5-0.3,1.1-1.8,1.4-3.3c0.3-1.6,1.1-4.6,1.7-6.8
	c2.3-8,5.4-22.8,6.9-33c2.6-17.2,3.2-27.5,3.2-49.3c0-20.9-0.2-23.7-1.9-26.5c-2.3-4-6-4.6-11.6-1.8c-12.7,6.2-25.1,8.6-45.6,8.5
	c-16.8,0-22.3-0.7-36-4.3c-1.9-0.5-4.6-1.3-6-1.6c-2.4-0.6-3.3-1-9.3-3.4c-1.5-0.6-3.9-1.1-5.2-1.1s-3.7,0.5-5.2,1.1
	c-6,2.4-6.9,2.8-9.3,3.4c-1.4,0.3-4.1,1.1-6,1.6c-13.4,3.5-19.3,4.2-35.5,4.3c-20.6,0.1-31.7-1.9-46.2-8.5
	C2984.7-4048.4,2981.8-4048.2,2979.3-4045.1z M3098.4-3999.3c4.2,1.3,9.1,2.3,21.4,4.5c12.7,2.3,38.9,0.9,47.8-2.5
	c2-0.8,2,1.7,0.1,14.6c-3.8,25.7-10.2,50-17.6,66.7c-1.1,2.4-1.9,4.6-1.9,4.9c0,1.1-11,22.6-13,25.4c-1.1,1.6-2,3.1-2,3.5
	s-3.3,5.3-7.2,10.9c-8.4,11.6-30.5,34.6-33.4,34.6c-2.7,0-25.9-24-33.4-34.8c-7.5-10.7-12.5-19.3-18.1-31.2c-3.9-8.2-4.6-9.7-7-15.8
	c-0.6-1.5-1.5-3.5-2-4.4c-0.5-1-0.9-2.7-0.9-3.7c0-1.1-0.4-2.2-0.9-2.5c-0.5-0.3-1.1-1.6-1.4-2.8c-0.3-1.3-1-4-1.6-6.1
	c-0.6-2-1.6-5.4-2.2-7.5c-3.4-12.1-7.4-33.3-8.5-45.2c-0.7-7-0.6-7.3,1.2-6.5c4.3,1.8,11.6,2.7,25.4,3.2c15.4,0.5,22-0.2,38-4.1
	C3092.8-4001,3093.1-4001,3098.4-3999.3z"/>
<path d="M3089.2-3972c-4.1,4.3-11.3,12-15.9,17.1c-7.2,8.1-8.2,9.7-7.6,12c0.8,3.4,3.1,5.2,6.7,5.2c2.3,0,4.2-1.5,9.2-6.8
	c26.2-28,25.3-26.9,23-31.3c-1.4-2.7-3.3-3.9-6.2-3.9C3097.5-3979.7,3093.4-3976.2,3089.2-3972z"/>
<path d="M3124.3-3975c-2.5,2.7-9.6,10.4-15.6,17.3c-15,17.2-31.9,36.4-32.5,37c-0.3,0.3-3.3,3.7-6.8,7.6c-6.9,8-7.9,11.7-4,15.4
	c4.6,4.2,4.8,4,26.3-20.5c9-10.3,13.1-14.9,18.1-20.5c2.2-2.5,7.8-8.8,12.4-14c4.5-5.2,9.2-10.7,10.5-12.1c4.7-5.4,5.6-7.5,4.6-10.2
	c-1.1-2.7-3.8-4.7-6.6-4.7C3129.7-3979.7,3126.9-3977.6,3124.3-3975z"/>
<path d="M1888-4009c-1,1.1-1.8,3.3-1.8,5c0,1.6,0.8,3.7,1.8,4.5c2,1.8,16.6,3.2,33.2,3.3c10.2,0,10.5-0.1,11.9-2.6
	c2-3.5,0.8-7.4-2.6-8.7c-1.6-0.6-8-1.3-14.3-1.7c-6.3-0.3-14.9-0.8-19-1.2C1890.6-4010.9,1889.5-4010.7,1888-4009z"/>
<path d="M2382.2-3954.7v10l22.8-0.2l22.7-0.3l0.3-9.8l0.3-9.7h-23.1h-23V-3954.7z"/>
<path d="M2325.3-3949l-7.4,0.4l0.6,19.2c1,31.5,3.9,49.3,11.8,73.2c2.4,7.1,2.5,7.3,8.2,19.5c6.4,13.5,15.5,26.8,24.5,35.9
	c11.6,11.8,19.9,13.9,27.5,7.1c2.9-2.6,3.2-3.4,3.2-8.7c0-3.2-1.1-10.5-2.5-16.3c-3.2-14-3.5-39.6-0.6-50.5
	c6.4-24.3,16.2-29.6,24.1-13.1c8.4,17.7,9.3,42.6,2.5,71.3c-2.2,9-2.2,9.2-0.4,13c2.3,4.6,7.6,8.3,11.8,8.3
	c13.4-0.1,34.8-26.3,48.7-59.5c4-9.6,9.1-29.3,11.5-44.2c1.4-8.7,3.5-53.6,2.6-55.6c-0.2-0.4-11.8-0.7-25.8-0.7h-25.4v3
	c0,4.8-2.6,9.8-6.2,12c-3.1,1.9-5,2-28.6,2c-27.4,0-28.9-0.3-33.1-5.6c-1.3-1.6-2.1-4.1-2.1-6.4c0-2.5-0.5-4-1.6-4.4
	C2367-3949.7,2339.3-3949.6,2325.3-3949z"/>
<path d="M2697.7-3713.1l-2.5,2.7v23.7c0,22.5,0.1,23.9,2.1,26.4c1.7,2.1,2.9,2.6,6.5,2.6h4.4v5.5v5.5h-7.9
	c-13.7,0-14.4,0.8-15.5,19.5c-0.3,5.5-1.2,18.8-2.1,29.5c-0.8,10.7-1.7,24-2,29.5c-0.7,10.9-3.9,56.6-5.5,76.5
	c-1.5,20.2-4,56.2-4,59.5c0,3.1,1.4,4.5,5.5,5.9l3.7,1.3l0.2,10.1c0.2,15.8-7.5,14.2,66.7,14.2h62.8l2-2.6c1.8-2.3,2.1-4.1,2.1-12.5
	c0-9,0.2-9.9,1.9-9.9c1,0,3.1-1,4.6-2.2l2.7-2.1l-0.6-11.1c-0.4-6.1-1.1-16.1-1.6-22.1c-0.5-6.1-1.4-17.8-1.9-26
	c-0.6-8.3-1.3-18.2-1.6-22c-0.3-3.9-1-13.3-1.5-21c-0.6-7.7-1.5-20-2-27.3c-0.6-7.2-1.4-19.2-2-26.5c-0.9-13.3-1.2-16.8-3.1-42.2
	c-0.7-9.1-1.6-14.8-2.6-16c-1.2-1.7-2.8-2.1-10.8-2.3c-8.9-0.4-9.5-0.5-10.1-2.7c-0.3-1.2-0.4-3.6-0.2-5.1c0.3-2.7,0.7-2.9,4.8-3.2
	c8.1-0.6,8-0.1,8-28.8c0-24.8,0-25.4-2.2-27.4c-2.1-2-3.3-2-49-2h-46.9L2697.7-3713.1z M2773.2-3652.3c0,4-0.4,5.5-1.6,6
	c-1.9,0.7-46.7,0.8-48.6,0.1c-0.9-0.4-1.3-2.2-1.1-5.8c0-2.8,0.2-5.3,0.2-5.5c0.1-0.1,11.6-0.2,25.6-0.2h25.5V-3652.3z M2801-3420
	l0.3,6.3h-54.1h-54v-5.8c0-3.2,0.3-6.2,0.7-6.5c0.3-0.4,24.5-0.6,53.7-0.5l53.1,0.3L2801-3420z"/>
<path d="M2969.7-3710.2c-3,2.9-3,2.6-0.1,15.5c3.2,14,4.9,18.7,10.6,30.2c11,22.1,27.6,36.1,49.8,42c14.3,3.8,36.9,3.4,53.9-0.9
	c2.2-0.5,2.3-0.3,2.3,5.6v6.1h-16.7c-17.2,0-24.8,1-36.9,4.9c-23.5,7.5-43.2,25.2-54.7,49.1c-14.2,29.4-13.5,70.1,1.7,102.6
	c12.1,25.8,34.1,45.3,59.1,52.4c6.5,1.9,10.1,2,54.6,2c45.3,0,47.9-0.1,53.8-2.1c30.8-10.1,52.6-32.4,63.4-64.9
	c1.4-4.1,3-9.8,3.6-12.5c0.6-2.8,1.5-7.1,2.1-9.7c0.5-2.6,1-11.6,1-20c0-16-1.2-24.6-5.2-36.1c-2.3-6.9-11.2-24.6-13.7-27.4
	c-0.9-1-3.5-4.1-5.8-6.9c-6.2-7.5-16.9-15.8-26.5-20.8c-16-8.2-27.6-10.6-50.7-10.6h-16.4l0.6-17.3c0.3-9.4,1.1-18.8,1.8-20.7
	c4.7-13.6,6.3-16.6,12.1-22.1c6.8-6.4,7.4-9.6,2.6-13.2c-2.4-1.8-3-1.9-6-0.6c-1.8,0.7-5.6,3.7-8.4,6.5l-5.2,5.2l-6.1-6.8
	c-7.1-7.9-14.5-12.8-25.1-16.3c-12.8-4.3-19.7-5.1-39.4-4.4c-22.9,0.8-29.1-0.3-42.8-7.2c-4.4-2.3-8.7-4.1-9.5-4.1
	C2972.8-3712.7,2971-3711.6,2969.7-3710.2z"/>
<path d="M2024.7-3698.1c-27.4,4-48.9,23.5-56.4,51.2c-0.7,2.4-1.2,9.1-1.2,15c0,15.6,2.9,25.4,11.2,37.8
	c7.8,11.7,20.7,21.7,32.8,25.4l5.6,1.8v27.3v27.4l-3.7,0.3c-7,0.6-6.8-1.4-6.8,55.9c0,50,0.1,51.4,2,53.3s3.3,2,25.5,2
	c22.8,0,23.5-0.1,25.5-2.2c2-2.1,2-3.2,2-53.3c0-57.6,0.3-55.5-7.1-55.5h-3.9l0.2-27.6l0.3-27.6l5.4-1.9
	c22.1-7.7,36.8-24.5,43.1-49.1c1.7-6.5,0.8-26.9-1.4-33.3c-8-23.1-24.8-39.4-46.6-45C2044.8-3697.9,2030.3-3698.9,2024.7-3698.1z
	 M2049.2-3683.1c9.1,3.1,15.4,6.9,22,13.4c21.4,21.1,21.5,54.9,0.1,76c-6.2,6.1-12.9,10.2-23.1,14.1c-5.7,2.2-25.2,1.7-31.8-0.9
	c-14.6-5.7-24.4-14.5-30.9-28c-4.2-8.7-4.5-9.9-5-19.5c-0.4-7.5-0.1-11.8,1-16.4c5.5-21.3,23.8-37.7,45.2-40.7
	C2031.8-3685.8,2044.5-3684.7,2049.2-3683.1z"/>
<path d="M2014.7-3672.8c-2.8,0.9-6.7,2.7-8.8,4c-4.2,2.6-10.6,9.6-12.6,13.7c-0.7,1.6-1.7,3.6-2.2,4.5c-0.4,0.9-1.1,4.4-1.5,7.8
	c-0.6,5.1-0.4,6.5,1.1,8.1c4,4.5,9.5,0.9,9.5-6.1c0-10.6,9-20.1,21.6-22.9c5.8-1.3,7.4-2.5,7.4-5.6
	C2029.2-3674.7,2023.9-3676,2014.7-3672.8z"/>
<path d="M2364.7-3694.1c-1.9,1.4-2,2.7-2,24.4c0,16.5,0.3,23.2,1.2,24.1c0.7,0.7,2.9,1.5,5,1.8l3.8,0.6l0.3,5.5
	c0.6,10.6,1.6,10-17.8,10c-18.8,0-23.7,1-30.2,6.2c-2,1.6-4.9,5.4-6.5,8.6c-2.6,5.3-2.8,6.7-3.1,19.9c-0.3,11,0,15.4,1.3,19.8
	c2.1,7.5,8.7,14.7,15.9,17.4l5.1,1.9v39.8v39.7l-4.2,1.4c-5.6,1.9-12.6,8.3-15.5,14.1c-2,4.1-2.3,6.5-2.6,19.7
	c-0.3,13.6-0.2,15.6,1.8,20.9c2.8,7.5,8.9,13.7,15.5,15.9c4.3,1.5,12.2,1.7,72.9,1.7h68.1l5-2.4c6.2-2.9,9.7-6.1,12.7-11.7
	c2.2-4.2,2.3-5.4,2.3-22.9c0-18.4,0-18.5-2.8-23.2c-3.2-5.6-7.9-9.5-13.9-11.9l-4.3-1.7v-39.7v-39.8l3.2-1.1c5.5-1.9,12-7.2,15-12.3
	c2.7-4.7,2.8-5.2,3.1-21.7c0.4-19.2-0.4-23-6.6-29.8c-6.8-7.5-9.3-8.2-30.7-8.8l-19-0.5l-0.3-7.8l-0.3-7.7h3.4
	c6.5,0,6.7-0.9,6.7-26.3c0-22.2,0-22.6-2.2-24.1C2441.7-3696.4,2367.7-3696.4,2364.7-3694.1z M2424-3636l0.3,8.3h-19.1h-19v-7.9
	c0-5.4,0.4-8.1,1.3-8.4c0.6-0.3,9.1-0.5,18.7-0.4l17.5,0.2L2424-3636z"/>
<path d="M1600.2-3658.7c-0.8,0.5-2.3,1-3.4,1c-1,0-5.6,1.8-10.2,3.9c-13.8,6.5-22.5,16.5-27.6,31.6c-1.8,5.4-1.7,30.1,0.1,38
	c0.7,3.3,2.7,10,4.4,15c2.6,7.7,3.1,10.7,3.3,21c0.1,8,0.8,13.7,1.9,17c3.6,10.8,8.7,24.1,9.6,25c0.6,0.5,5.4,1.2,10.7,1.5l9.7,0.5
	l0.3,9.5c0.2,8,0.6,9.8,2.4,11.7l2.1,2.3h45.9h45.8v2.9c0,6.5,2.5,6.1-38.6,6.1h-37.3l-1.6,3c-2.1,4.1-2.1,22.9,0,27l1.5,3l28.8,0.2
	c27.9,0.3,28.7,0.4,28.7,2.3s-0.8,2-15.1,2.5c-10.7,0.4-15.6,0.9-16.8,1.9c-1.3,1.1-1.6,3.5-1.6,14.7c0,12.6,0.1,13.4,2.2,14.8
	c2.8,2,5.8,2,8.4,0.2c1.5-1.2,2-3,2.4-9.8l0.5-8.3l15.2-0.5c10.6-0.3,15.6-0.9,16.5-1.8c0.9-0.9,1.4-5.1,1.6-12.5
	c0.3-10.1,0.1-11.5-1.6-13.7l-2-2.5l-28.1-0.3l-28.1-0.3v-3.4v-3.4l37.1-0.3l37-0.3l1.9-2.5c1.7-2.2,2-4.2,1.9-15
	c0-9.6-0.3-13-1.5-14.5c-1.4-1.9-3-2-47.7-2.5l-46.2-0.5v-5v-5l58-0.5c31.9-0.3,58.1-0.6,58.1-0.8c0.1-0.1,0.7-1.7,1.4-3.5
	c0.7-1.7,1.6-4.1,2-5.2s1.7-4.5,2.8-7.5c1.1-3,2.7-7.4,3.6-9.8c1.1-3,1.6-7.6,1.6-15.6c0-9.5,0.4-12.4,2.4-17.7
	c9.2-24.4,10-50.3,2.2-66.2c-6.4-13.2-17.4-21.4-36.7-27.6c-4.5-1.4-22.9-1.4-28.3,0c-5.8,1.6-16.4,6.7-20.7,10.1
	c-2,1.5-4.4,2.8-5.3,2.8c-1,0-4.3-1.7-7.4-3.8c-11.9-8-19.1-10.2-33.7-10.2C1606.7-3659.7,1601-3659.2,1600.2-3658.7z M1722.7-3527
	c-0.3,1.5-1.3,4.2-2,6l-1.4,3.3h-65.8h-65.8l-2.1-5.4c-1.2-3-1.9-5.7-1.6-6c0.3-0.4,31.8-0.6,70-0.6h69.4L1722.7-3527z"/>
<path d="M2694.9-3319.7c-6.4,2.5-10.2,6.6-12.1,13.1c-1.9,6.4-2.3,50.2-0.5,57.3c2.1,8.2,8.8,14.2,17.6,15.5l4.4,0.6l-0.1,71.6
	c0,48.1,0.3,72.6,1,74.5c1.7,4.3,3.8,5.3,11.8,5.4h7.2v28.8c0,27.6,0.1,28.9,2,31c2.5,2.7,7.1,2.9,9.3,0.4c1.5-1.6,1.7-5.3,1.7-31
	v-29.2h8.3c7.4,0,8.6-0.3,10.5-2.3c2.1-2.2,2.2-3.1,2.2-24.3v-21.9l11.1-8c6.2-4.4,11.8-9,12.6-10.2c1.3-1.9,1.2-3.3-0.6-12
	c-1.1-5.4-3.1-16.1-4.6-23.8c-1.4-7.7-3.1-16.5-3.7-19.7c-1.1-5.5-1.1-5.7,2.2-11.2c6.1-10,13.8-16.8,21.9-19.2
	c9.4-2.8,15.1-9.9,15.1-19c0-5.9,1.5-6.5,15.3-6.3c10.4,0.1,22-1.4,38.2-5.1c2.2-0.5,7.2-1.4,11-2.1c3.9-0.6,8.3-1.5,9.9-2
	c1.6-0.5,4.3-0.9,6-0.9c1.7-0.1,4.7-0.9,6.6-1.8c2.9-1.4,3.6-2.3,3.8-5.3c0.2-2.2-0.3-4.2-1.1-5.1c-1.3-1.2-9.8-3.1-35.2-7.9
	c-2.7-0.5-9.5-1.8-15-2.9c-7-1.4-13.9-2-23.5-2c-9.2,0-14-0.4-14.8-1.2c-0.7-0.7-1.2-3.3-1.2-5.9c0-8.9-5.6-15.6-15.5-18.6
	c-2.9-0.9-16.4-1.3-50.5-1.2C2703.1-3321.6,2699.4-3321.5,2694.9-3319.7z M2842.4-3281.2c11.9,2.3,14.1,2.9,14.5,4.1
	c0.2,0.7-1.6,1.4-4.4,1.7c-2.6,0.4-7,1.2-9.8,1.8c-7.8,1.7-27.3,2.3-29,0.9c-2.1-1.8-1.9-7.7,0.3-8.9
	C2816.6-3283.2,2833.1-3282.9,2842.4-3281.2z M2764.5-3178.5c0.6,4,1,6.1,3.6,18.7c0.5,2.5,0.7,4.9,0.5,5.5
	c-0.4,1.1-8.6,6.6-9.8,6.6c-1.5,0,0.5-23,2.9-32.3C2762.7-3183.9,2763.8-3183.3,2764.5-3178.5z"/>
<path d="M2539.3-3291.3c-9.8,9.7-17.6,16.7-19.1,17c-1.4,0.2-4.1,0.8-6,1.1c-6.5,1.3-15,3.4-32.5,8.3c-3.8,1-10.8,2.9-15.5,4.2
	l-8.5,2.2l-66.7,66.7c-58.6,58.4-66.8,66.9-66.8,69.6c0,2.3,1.4,4.4,6.7,9.7l6.8,6.8l-12,12l-12,12l-6-6c-6.5-6.4-9.9-8.2-13-7
	c-1.1,0.4-5.5,4.4-9.7,8.8c-6.1,6.2-7.8,8.6-7.8,10.8c0,2.5,4.1,7,26.3,29.2c21.3,21.3,26.7,26.2,28.9,26.2c2,0,4.8-2.1,11.3-8.3
	c11.1-10.8,11.3-12,1.8-21.8l-6.7-7l11.4-11.4c6.3-6.3,11.9-11.5,12.4-11.5s4,2.9,7.7,6.5c7.1,6.8,8.9,7.5,12.9,4.8
	c1.4-0.9,31.6-30.7,67.1-66.2l64.6-64.6l1.7-6c0.9-3.3,2.1-7.8,2.7-10c0.6-2.2,1.5-5.1,1.9-6.5c1.4-4.7,4-14,6-22
	c0.6-2.5,1.5-5.9,2-7.5c0.5-1.7,1.2-5.3,1.6-8c0.6-4.8,1.2-5.6,17-21.6c15.1-15.3,16.4-16.9,16.4-20.2c0-3.9-2.7-6.7-6.4-6.7
	C2556.7-3307.7,2549.2-3301.1,2539.3-3291.3z M2480.3-3222.8c10.4,10.4,18.9,19.3,18.9,19.7c0,1.2-118.3,119.4-119.5,119.4
	c-1.3,0-38.5-37.2-38.5-38.4c0-0.5,1-2,2.2-3.3l2.1-2.3l7.3,7c7.7,7.5,10.9,8.7,14.6,5.3c3.6-3.3,2.3-6.9-5.2-14.7l-7-7.2l5.4-5.3
	l5.3-5.3l10.9,10.6c8.3,8,11.5,10.6,13.6,10.6c3.6,0,5.8-2.4,5.8-6.3c0-2.8-1.5-4.7-10-13.2c-5.5-5.5-10-10.4-10-11
	c0.1-1.2,6.7-8.5,7.8-8.5c0.4,0,3.7,2.9,7.2,6.5c5.5,5.6,6.9,6.5,10,6.5c4.5,0,6-1.5,6-5.9c0-3-1-4.5-6.7-10.3l-6.8-6.8l5.2-5.2
	l5.2-5.2l9.8,9.5c5.4,5.3,10.9,10.2,12.1,10.8c4.5,2.4,9.1-1.1,9.2-6.8c0-0.8-4.8-6.3-10.7-12.3l-10.7-10.8l4.5-4.5l4.4-4.5l7.2,7
	c8,7.8,11.8,9,14.7,4.8c2.9-4.1,2-6.5-5.5-14.4c-3.9-4.1-6.9-7.6-6.7-7.7c0.2-0.1,2.7-2.4,5.5-5.1l5.2-4.9l10.1,9.9
	c5.5,5.4,10.9,10.3,12,10.8c5,2.3,10.6-3.6,8-8.4c-0.6-1.2-5.4-6.3-10.6-11.2c-5.2-5-9.4-9.6-9.4-10.1c0-1.3,6-7.7,7.3-7.7
	C2461-3241.7,2469.9-3233.2,2480.3-3222.8z"/>
<path d="M3191.7-3301.2c-9.6,2.1-15.3,4.3-27,10.1c-16,7.9-22.7,13.3-30.7,24.5c-21,29.3-19.3,27.4-32.5,35.3
	c-10.8,6.5-40.1,26-41.3,27.6c-0.3,0.3-2.1,1.7-4,3c-1.9,1.4-4.2,3-5,3.7c-39,30.8-64.8,57.1-82.4,84c-8.4,12.8-16.5,29.9-17.3,36.2
	c-1,8.7,2.8,15.4,10.4,18.6c7.2,3,13.9,1.1,19.7-5.7c2-2.3,3.6-4.6,3.6-5c0-1.2,14.1-22.8,19.4-29.8c14.2-18.8,29.3-34.9,48.1-51.5
	c9.9-8.7,29-22.1,42.4-29.7c7.6-4.4,8.8-4.8,14.4-4.8h5.7v6.9c0,6-0.4,7.7-3.3,12.8c-4.6,8-11.5,19.1-12.7,20.3
	c-0.3,0.3-2,2.7-3.9,5.5c-9.5,13.7-28.1,34.1-44.7,49c-15.3,13.6-24.4,20.1-54.5,39.1c-4.2,2.6-7.9,9.4-7.9,14.5
	c0,9.6,8.7,17.5,18.5,16.6c7.8-0.6,22.2-7.5,40-19.2c32.3-21.1,70.6-62.3,103.2-111c4.3-6.5,16-25.5,18.1-29.5
	c0.7-1.4,5.2-5.3,10-8.7c21.4-15.3,28.8-20.8,30-22.2c16.3-19.9,26.6-47,26.1-68.6c-0.2-8.7-2-18-3.8-19.8
	C3226.6-3302.7,3204.1-3303.9,3191.7-3301.2z M3201.2-3268.6c0,2-5.1,12.1-9,17.9c-4.5,6.6-9.5,11.1-15.8,14.2
	c-4.4,2.1-4.4,2.1-7,0.1c-3.6-2.7-3.8-4.4-1.1-9.8c3.8-7.6,13.1-15.7,23.4-20.4c1.7-0.7,3.7-1.7,4.5-2.2
	C3198.4-3269.9,3201.2-3269.9,3201.2-3268.6z"/>
<path d="M2033.1-3265.3c-13.7,4.8-26.7,15.4-33.7,27.7c-3,5.3-6.8,16.1-7.4,20.9l-0.3,2.5l-25.5,0.5c-23.8,0.5-25.8,0.6-29.6,2.7
	c-2.2,1.2-5.5,3.8-7.2,5.8c-6.5,7.3-6.2,3-6.2,89v78.3l2.3,4.2c2.8,5.5,9.5,11.3,14.5,12.8c2.9,0.9,32,1.2,111.5,1.2
	c105.1,0,107.7,0,113-2c6.2-2.3,10.8-6.7,13.6-13c2-4.4,2.1-6.2,2.1-81.8c0-84,0.2-80.3-5.6-87.9c-1.3-1.8-4.6-4.5-7.2-6l-4.7-2.8
	l-24.5-0.5l-24.4-0.5l-0.7-4c-3.7-21.6-19.6-39.9-40.9-47.1c-6.2-2.1-9-2.4-19.8-2.3C2041.8-3267.6,2038.6-3267.2,2033.1-3265.3z
	 M2063.4-3255.3c18.2,4.4,34.8,20.9,37.4,37.4l0.7,4.2h-48.7c-55.8,0-50.5,1.2-46.1-10.5C2015.4-3247.5,2039.9-3260.9,2063.4-3255.3
	z M2065-3150.1c0.3,21-1,19.7,20.6,20.4l16.1,0.5l0.3,11c0.4,17,2.1,15.5-17.2,15.5c-14.4,0-16.5,0.2-17.9,1.8
	c-1.4,1.5-1.7,4.7-1.9,17.7l-0.3,16l-13.2,0.3l-13.3,0.3v-15.8c0-21.7,1.3-20.3-19.5-20.3h-16.4l-0.6-3.3c-0.3-1.7-0.5-7.7-0.3-13.2
	l0.3-10l16.1-0.5c21.6-0.7,20.4,0.5,20.4-20c0-8.6,0.3-16,0.7-16.4c0.4-0.3,6.3-0.5,13.2-0.4l12.6,0.3L2065-3150.1z"/>
<path d="M1569.6-3261.3c-11.1,3.6-21.3,15.1-25.3,28.6c-3.9,13-5.1,19.8-5.1,28.6c0,10.8-3,31.3-6.6,44.9
	c-9.2,35.1-26.5,51.9-49.7,48.6c-3.4-0.5-8.2-1.6-10.7-2.5c-6-2.1-8.6-2-11,0.4c-4.4,4.4-1.7,9.4,6.6,12.1
	c22.7,7.5,40.3,3.7,55.6-11.9c6.3-6.5,8.5-9.8,12.6-18.3c9.3-19.3,14.1-38.9,15.7-63.4c1.2-20.9,2.8-29.6,6.8-38.7
	c4.3-9.7,9.5-14.2,19.2-16.7c4.7-1.2,13.3,0.6,17.5,3.7c4.2,3.1,7,9.3,7.3,16l0.2,6.1l-7.4,6.8c-4.7,4.4-7.2,7.3-6.7,8.1
	c0.9,1.5,172.1,1.8,173,0.3c0.8-1.3-14.2-15.1-22.1-20.4c-20.9-13.7-40.5-19.7-64.7-19.7c-19.1,0-34.8,3.6-50.9,11.7
	c-3.7,1.8-7.2,3.1-7.6,2.8c-0.5-0.2-1.2-2.1-1.6-4.2c-1.7-9.3-8.4-17.5-17.4-21.6C1591.5-3262.6,1575.7-3263.3,1569.6-3261.3z"/>
<path d="M1576.3-3192.9c-1.1,1.5-3.4,5.9-5.1,9.8c-6.1,13.1-6.8,15.6-10,32.2c-1.3,7-1.3,26,0.1,33.6c6,33.5,22.5,59.6,48.9,77.5
	c19.7,13.3,41.2,20,64.5,20.1c44.1,0,85.2-26.2,104-66.3c7.4-15.9,10.5-30,10.5-48.2c0-13.9-1.5-23.4-5.7-36.5
	c-2.7-8.3-9.7-22.9-11.7-24.2c-0.6-0.4-44.4-0.8-97.3-0.8h-96.2L1576.3-3192.9z M1694.2-3187.2c24,7.4,41.2,24.6,48.7,49.1
	c2.5,8.3,2.5,29.5,0,37.8c-3.8,12.3-8.6,20.4-17.6,30c-4.8,5-15.9,13.6-17.6,13.6c-0.3,0-2.4,0.8-4.8,1.9c-19.9,8.8-41.3,8-61.2-2.3
	c-11.6-6-23.6-18.1-29.2-29.6c-5-10.4-5.9-12.9-7.3-20.4c-3-17.2,1-36.7,10.4-50.6c11.4-16.9,27.4-27.5,47.6-31.4
	C1668.3-3190.1,1688.8-3188.8,1694.2-3187.2z"/>
<path d="M1663.2-3176.2c-20.9,4.7-36.3,18.5-43.7,39c-2.5,7.1-2.5,27.7,0,35.7c5.3,16.5,19.5,30.9,36.4,36.9
	c8.4,3,23.2,3.7,32.6,1.4c22.4-5.4,38.9-23.1,43.4-46.7c1.5-7.7,1.5-9.7,0.3-17c-2.3-14.1-7.1-23.7-16.8-33.4
	c-9-8.8-17.3-13.2-30.2-16C1677.6-3177.9,1670.8-3177.9,1663.2-3176.2z M1686.3-3142.6c8.9,4.5,14.3,13.4,14.2,23.4
	c-0.1,6.9-2,11.9-6.4,16.9c-9.2,10.5-23.5,12.1-34.5,3.7c-15.3-11.7-14-33.1,2.5-43.4C1668.7-3146,1679.1-3146.3,1686.3-3142.6z"/>
<g>
	<defs>
		<rect id="SVGID_1_" x="1328" y="-2762.5" width="459.2" height="459.2"/>
	</defs>
	<clipPath id="SVGID_2_">
		<use xlink:href="#SVGID_1_"  style="overflow:visible;"/>
	</clipPath>
	<g class="st0">
		<defs>
			<rect id="SVGID_3_" x="1328" y="-2762.5" width="459.2" height="459.2"/>
		</defs>
		<clipPath id="SVGID_4_">
			<use xlink:href="#SVGID_3_"  style="overflow:visible;"/>
		</clipPath>
		<g style="clip-path:url(#SVGID_4_);">
			
				<image style="overflow:visible;" width="56" height="56" xlink:href="BFB5FF1AAD4FAE9A.png"  transform="matrix(8.1995 0 0 8.1995 1328.025 -2762.4807)">
			</image>
		</g>
	</g>
</g>
<g>
	<defs>
		<rect id="SVGID_5_" x="1892.9" y="-2656.3" width="272.5" height="272.5"/>
	</defs>
	<clipPath id="SVGID_6_">
		<use xlink:href="#SVGID_5_"  style="overflow:visible;"/>
	</clipPath>
	<g class="st1">
		<defs>
			<rect id="SVGID_7_" x="1892.9" y="-2656.3" width="272.5" height="272.5"/>
		</defs>
		<clipPath id="SVGID_8_">
			<use xlink:href="#SVGID_7_"  style="overflow:visible;"/>
		</clipPath>
		<g style="clip-path:url(#SVGID_8_);">
			
				<image style="overflow:visible;" width="56" height="56" xlink:href="BFB5FF1AAD4FAE9B.png"  transform="matrix(4.8669 0 0 4.8669 1892.9038 -2656.2971)">
			</image>
		</g>
	</g>
</g>
<g>
	<defs>
		<rect id="SVGID_9_" x="2308.8" y="-2687" width="334" height="334"/>
	</defs>
	<clipPath id="SVGID_10_">
		<use xlink:href="#SVGID_9_"  style="overflow:visible;"/>
	</clipPath>
	<g class="st2">
		<defs>
			<rect id="SVGID_11_" x="2308.8" y="-2687" width="334" height="334"/>
		</defs>
		<clipPath id="SVGID_12_">
			<use xlink:href="#SVGID_11_"  style="overflow:visible;"/>
		</clipPath>
		<g style="clip-path:url(#SVGID_12_);">
			
				<image style="overflow:visible;" width="56" height="56" xlink:href="BFB5FF1AAD4FAE9C.png"  transform="matrix(5.9651 0 0 5.9651 2308.7664 -2687.0476)">
			</image>
		</g>
	</g>
</g>
<g>
	<defs>
		<rect id="SVGID_13_" x="2762" y="-2709.4" width="378.7" height="378.7"/>
	</defs>
	<clipPath id="SVGID_14_">
		<use xlink:href="#SVGID_13_"  style="overflow:visible;"/>
	</clipPath>
	<g class="st3">
		<defs>
			<rect id="SVGID_15_" x="2762" y="-2709.4" width="378.7" height="378.7"/>
		</defs>
		<clipPath id="SVGID_16_">
			<use xlink:href="#SVGID_15_"  style="overflow:visible;"/>
		</clipPath>
		<g transform="matrix(1 0 0 1 0 0)" style="clip-path:url(#SVGID_16_);">
			
				<image style="overflow:visible;" width="56" height="56" xlink:href="BFB5FF1AAD4FAE9D.png"  transform="matrix(6.763 0 0 6.763 2761.9546 -2709.3889)">
			</image>
		</g>
	</g>
</g>
<g>
	<defs>
		<rect id="SVGID_17_" x="3381.3" y="-2714.2" width="362.6" height="362.6"/>
	</defs>
	<clipPath id="SVGID_18_">
		<use xlink:href="#SVGID_17_"  style="overflow:visible;"/>
	</clipPath>
	<g class="st4">
		<defs>
			<rect id="SVGID_19_" x="3381.3" y="-2714.2" width="362.6" height="362.6"/>
		</defs>
		<clipPath id="SVGID_20_">
			<use xlink:href="#SVGID_19_"  style="overflow:visible;"/>
		</clipPath>
		<g style="clip-path:url(#SVGID_20_);">
			
				<image style="overflow:visible;" width="56" height="56" xlink:href="BFB5FF1AAD4FAEA4.png"  transform="matrix(6.4757 0 0 6.4757 3381.3044 -2714.2153)">
			</image>
		</g>
	</g>
</g>
<g>
	<defs>
		<rect id="SVGID_21_" x="1384.3" y="-2228.3" width="346.6" height="346.6"/>
	</defs>
	<clipPath id="SVGID_22_">
		<use xlink:href="#SVGID_21_"  style="overflow:visible;"/>
	</clipPath>
	<g class="st5">
		<defs>
			<rect id="SVGID_23_" x="1384.3" y="-2228.3" width="346.6" height="346.6"/>
		</defs>
		<clipPath id="SVGID_24_">
			<use xlink:href="#SVGID_23_"  style="overflow:visible;"/>
		</clipPath>
		<g style="clip-path:url(#SVGID_24_);">
			
				<image style="overflow:visible;" width="56" height="56" xlink:href="BFB5FF1AAD4FAEA5.png"  transform="matrix(6.1884 0 0 6.1884 1384.3345 -2228.345)">
			</image>
		</g>
	</g>
</g>
<g>
	<defs>
		<rect id="SVGID_25_" x="1959.2" y="-2212.3" width="285.9" height="285.9"/>
	</defs>
	<clipPath id="SVGID_26_">
		<use xlink:href="#SVGID_25_"  style="overflow:visible;"/>
	</clipPath>
	<g class="st6">
		<defs>
			<rect id="SVGID_27_" x="1959.2" y="-2212.3" width="285.9" height="285.9"/>
		</defs>
		<clipPath id="SVGID_28_">
			<use xlink:href="#SVGID_27_"  style="overflow:visible;"/>
		</clipPath>
		<g transform="matrix(1 0 0 1 1.220703e-04 0)" style="clip-path:url(#SVGID_28_);">
			
				<image style="overflow:visible;" width="56" height="56" xlink:href="BFB5FF1AAD4FAEA6.png"  transform="matrix(5.1062 0 0 5.1062 1959.2209 -2212.2563)">
			</image>
		</g>
	</g>
</g>
<g>
	<defs>
		<rect id="SVGID_29_" x="2487.6" y="-2224.5" width="310.4" height="310.4"/>
	</defs>
	<clipPath id="SVGID_30_">
		<use xlink:href="#SVGID_29_"  style="overflow:visible;"/>
	</clipPath>
	<g class="st7">
		<defs>
			<rect id="SVGID_31_" x="2487.6" y="-2224.5" width="310.4" height="310.4"/>
		</defs>
		<clipPath id="SVGID_32_">
			<use xlink:href="#SVGID_31_"  style="overflow:visible;"/>
		</clipPath>
		<g style="clip-path:url(#SVGID_32_);">
			
				<image style="overflow:visible;" width="56" height="56" xlink:href="BFB5FF1AAD4FAEA7.png"  transform="matrix(5.5433 0 0 5.5433 2487.5994 -2224.4963)">
			</image>
		</g>
	</g>
</g>
<g>
	<defs>
		<rect id="SVGID_33_" x="3005.7" y="-2247.4" width="356.2" height="356.2"/>
	</defs>
	<clipPath id="SVGID_34_">
		<use xlink:href="#SVGID_33_"  style="overflow:visible;"/>
	</clipPath>
	<g class="st8">
		<defs>
			<rect id="SVGID_35_" x="3005.7" y="-2247.4" width="356.2" height="356.2"/>
		</defs>
		<clipPath id="SVGID_36_">
			<use xlink:href="#SVGID_35_"  style="overflow:visible;"/>
		</clipPath>
		<g transform="matrix(1 0 0 1 0 0)" style="clip-path:url(#SVGID_36_);">
			
				<image style="overflow:visible;" width="56" height="56" xlink:href="BFB5FF1AAD4FAEA8.png"  transform="matrix(6.3608 0 0 6.3608 3005.7051 -2247.3857)">
			</image>
		</g>
	</g>
</g>
<path d="M1841.1-1547.1c-22.2,5.1-35.8,16.5-42.2,35.3c-3.5,10-2.7,35,1.4,46.4l1,2.6l14.1,0.7c7.8,0.3,20.5,0.5,28.2,0.3l14-0.3
	l0.6-4c0.7-5,2.1-7.8,5.3-9.9c2.2-1.4,6.2-1.6,29.5-1.6h26.9l3.1,2.5c2.7,2.3,5.4,7.8,5,10.1c-0.6,3.3,0.1,3.4,18.9,3.4
	c10.3,0,23-0.3,28.4-0.7l9.6-0.6l1.2-4.6c0.6-2.5,1.5-6.2,2.1-8.2c1.5-5.8,1.1-27-0.6-33.5c-3-11.5-8.5-19.7-18.4-27.1
	c-9.3-7.1-25.1-12.3-36.6-12.3c-10.7,0.1-24.6,5-34.9,12.4l-4.8,3.4l-7.2-4.7c-9.4-6.2-11.8-7.3-21.6-9.7
	C1857.4-1548.8,1848.4-1548.8,1841.1-1547.1z"/>
<path d="M1870.1-1455.6v10l22.8-0.2l22.7-0.3l0.3-9.8l0.3-9.7h-23.1h-23V-1455.6z"/>
<path d="M1813.2-1449.9l-7.4,0.4l0.6,19.2c1,31.5,3.9,49.3,11.8,73.2c2.4,7.1,2.5,7.3,8.2,19.5c6.4,13.5,15.5,26.8,24.5,35.9
	c11.6,11.8,19.9,13.9,27.5,7.1c2.9-2.6,3.2-3.4,3.2-8.7c0-3.2-1.1-10.5-2.5-16.3c-3.2-14-3.5-39.6-0.6-50.5
	c6.4-24.3,16.2-29.6,24.1-13.1c8.4,17.7,9.3,42.6,2.5,71.3c-2.2,9-2.2,9.2-0.4,13c2.3,4.6,7.6,8.3,11.8,8.3
	c13.4-0.1,34.8-26.3,48.7-59.5c4-9.6,9.1-29.3,11.5-44.2c1.4-8.7,3.5-53.6,2.6-55.6c-0.2-0.4-11.8-0.7-25.8-0.7h-25.4v3
	c0,4.8-2.6,9.8-6.2,12c-3.1,1.9-5,2-28.6,2c-27.4,0-28.9-0.3-33.1-5.6c-1.3-1.6-2.1-4.1-2.1-6.4c0-2.5-0.5-4-1.6-4.4
	C1854.9-1450.6,1827.2-1450.5,1813.2-1449.9z"/>
<path d="M2050.4-1547.1c-22.2,5.1-35.8,16.5-42.2,35.3c-3.5,10-2.7,35,1.4,46.4l1,2.6l14.1,0.7c7.8,0.3,20.5,0.5,28.2,0.3l14-0.3
	l0.6-4c0.7-5,2.1-7.8,5.3-9.9c2.2-1.4,6.2-1.6,29.5-1.6h26.9l3.1,2.5c2.7,2.3,5.4,7.8,5,10.1c-0.6,3.3,0.1,3.4,18.9,3.4
	c10.3,0,23-0.3,28.4-0.7l9.6-0.6l1.2-4.6c0.6-2.5,1.5-6.2,2.1-8.2c1.5-5.8,1.1-27-0.6-33.5c-3-11.5-8.5-19.7-18.4-27.1
	c-9.3-7.1-25.1-12.3-36.6-12.3c-10.7,0.1-24.6,5-34.9,12.4l-4.8,3.4l-7.2-4.7c-9.4-6.2-11.8-7.3-21.6-9.7
	C2066.7-1548.8,2057.7-1548.8,2050.4-1547.1z"/>
<path d="M2079.4-1455.6v10l22.8-0.2l22.7-0.3l0.3-9.8l0.3-9.7h-23.1h-23V-1455.6z"/>
<path d="M2022.5-1449.9l-7.4,0.4l0.6,19.2c1,31.5,3.9,49.3,11.8,73.2c2.4,7.1,2.5,7.3,8.2,19.5c6.4,13.5,15.5,26.8,24.5,35.9
	c11.6,11.8,19.9,13.9,27.5,7.1c2.9-2.6,3.2-3.4,3.2-8.7c0-3.2-1.1-10.5-2.5-16.3c-3.2-14-3.5-39.6-0.6-50.5
	c6.4-24.3,16.2-29.6,24.1-13.1c8.4,17.7,9.3,42.6,2.5,71.3c-2.2,9-2.2,9.2-0.4,13c2.3,4.6,7.6,8.3,11.8,8.3
	c13.4-0.1,34.8-26.3,48.7-59.5c4-9.6,9.1-29.3,11.5-44.2c1.4-8.7,3.5-53.6,2.6-55.6c-0.2-0.4-11.8-0.7-25.8-0.7h-25.4v3
	c0,4.8-2.6,9.8-6.2,12c-3.1,1.9-5,2-28.6,2c-27.4,0-28.9-0.3-33.1-5.6c-1.3-1.6-2.1-4.1-2.1-6.4c0-2.5-0.5-4-1.6-4.4
	C2064.2-1450.6,2036.5-1450.5,2022.5-1449.9z"/>
<path d="M-423.4-3255.2c-80,11.7-141.4,80.6-141.4,163.8v173c0,42.6,34.5,77.2,77.2,77.2h64.2h64.2c42.6,0,77.2-34.5,77.2-77.2v-173
	C-282-3174.7-343.4-3243.5-423.4-3255.2z M-304.4-2933.8c0,35.9-29.1,64.9-64.9,64.9h-54h-54c-35.9,0-64.9-29.1-64.9-64.9v-145.6
	c0-70,51.7-128,118.9-137.8c67.3,9.8,118.9,67.8,118.9,137.8V-2933.8z"/>
<path d="M-138.6-3256.2c-80,11.7-141.4,80.6-141.4,163.8v173c0,42.6,34.5,77.2,77.2,77.2h64.2h64.2c42.6,0,77.2-34.5,77.2-77.2v-173
	C2.7-3175.7-58.7-3244.5-138.6-3256.2z M-19.7-2934.8c0,35.9-29.1,64.9-64.9,64.9h-54h-54c-35.9,0-64.9-29.1-64.9-64.9v-145.6
	c0-70,51.7-128,118.9-137.8c67.3,9.8,118.9,67.8,118.9,137.8V-2934.8z"/>
<path d="M92.4-3218.2c-56,10.6-98.9,73.2-98.9,148.7v157.1c0,38.7,24.2,70.1,54,70.1h44.9h44.9c29.8,0,54-31.4,54-70.1v-157.1
	C191.4-3145,148.4-3207.6,92.4-3218.2z M175.7-2926.3c0,32.6-20.3,59-45.4,59H92.4H54.6c-25.1,0-45.4-26.4-45.4-59v-132.2
	c0-63.6,36.1-116.2,83.2-125.1c47.1,8.9,83.2,61.6,83.2,125.1V-2926.3z"/>
<path d="M-663.6-3218.2c-56,10.6-98.9,73.2-98.9,148.7v157.1c0,38.7,24.2,70.1,54,70.1h44.9h44.9c29.8,0,54-31.4,54-70.1v-157.1
	C-564.7-3145-607.7-3207.6-663.6-3218.2z M-580.4-2926.3c0,32.6-20.3,59-45.4,59h-37.8h-37.8c-25.1,0-45.4-26.4-45.4-59v-132.2
	c0-63.6,36.1-116.2,83.2-125.1c47.1,8.9,83.2,61.6,83.2,125.1V-2926.3z"/>
<path d="M-389.8-3068.8h-61.7c-18,0-32.6,14.6-32.6,32.6v61.7c0,18,14.6,32.6,32.6,32.6h61.7c18,0,32.6-14.6,32.6-32.6v-61.7
	C-357.2-3054.2-371.8-3068.8-389.8-3068.8z M-373.5-2990.8c0,18-14.6,32.6-32.6,32.6h-29.1c-18,0-32.6-14.6-32.6-32.6v-29.1
	c0-18,14.6-32.6,32.6-32.6h29.1c18,0,32.6,14.6,32.6,32.6V-2990.8z"/>
<path d="M-107.8-3068.8h-61.7c-18,0-32.6,14.6-32.6,32.6v61.7c0,18,14.6,32.6,32.6,32.6h61.7c18,0,32.6-14.6,32.6-32.6v-61.7
	C-75.2-3054.2-89.8-3068.8-107.8-3068.8z M-91.5-2990.8c0,18-14.6,32.6-32.6,32.6h-29.1c-18,0-32.6-14.6-32.6-32.6v-29.1
	c0-18,14.6-32.6,32.6-32.6h29.1c18,0,32.6,14.6,32.6,32.6V-2990.8z"/>
<path d="M144.4-3068.8h-42.2c-12.3,0-22.3,14.6-22.3,32.6v61.7c0,18,10,32.6,22.3,32.6h42.2c12.3,0,22.3-14.6,22.3-32.6v-61.7
	C166.7-3054.2,156.7-3068.8,144.4-3068.8z M155.5-2990.8c0,18-10,32.6-22.3,32.6h-19.9c-12.3,0-22.3-14.6-22.3-32.6v-29.1
	c0-18,10-32.6,22.3-32.6h19.9c12.3,0,22.3,14.6,22.3,32.6V-2990.8z"/>
<path d="M-673.1-3068.8h-42.2c-12.3,0-22.3,14.6-22.3,32.6v61.7c0,18,10,32.6,22.3,32.6h42.2c12.3,0,22.3-14.6,22.3-32.6v-61.7
	C-650.8-3054.2-660.8-3068.8-673.1-3068.8z M-661.9-2990.8c0,18-10,32.6-22.3,32.6h-19.9c-12.3,0-22.3-14.6-22.3-32.6v-29.1
	c0-18,10-32.6,22.3-32.6h19.9c12.3,0,22.3,14.6,22.3,32.6V-2990.8z"/>
<rect x="-654.5" y="-3018" width="173.1" height="19"/>
<rect x="-361.5" y="-3018" width="167.8" height="19"/>
<rect x="-81.9" y="-3018" width="165.5" height="19"/>
<rect x="161.5" y="-3018" width="73.7" height="19"/>
<rect x="-791.9" y="-3018" width="58.7" height="19"/>
<path d="M-427.1-2453.9c-80,11.7-141.4,80.6-141.4,163.8v173c0,42.6,34.5,77.2,77.2,77.2h64.2h64.2c42.6,0,77.2-34.5,77.2-77.2v-173
	C-285.7-2373.3-347.1-2442.2-427.1-2453.9z M-308.1-2132.4c0,35.9-29.1,64.9-64.9,64.9h-54h-54c-35.9,0-64.9-29.1-64.9-64.9V-2278
	c0-70,51.7-128,118.9-137.8c67.3,9.8,118.9,67.8,118.9,137.8V-2132.4z"/>
<path d="M-142.3-2454.9c-80,11.7-141.4,80.6-141.4,163.8v173c0,42.6,34.5,77.2,77.2,77.2h64.2h64.2c42.6,0,77.2-34.5,77.2-77.2v-173
	C-1-2374.3-62.4-2443.2-142.3-2454.9z M-23.4-2133.4c0,35.9-29.1,64.9-64.9,64.9h-54h-54c-35.9,0-64.9-29.1-64.9-64.9V-2279
	c0-70,51.7-128,118.9-137.8c67.3,9.8,118.9,67.8,118.9,137.8V-2133.4z"/>
<path d="M88.8-2416.8c-56,10.6-98.9,73.2-98.9,148.7v157.1c0,38.7,24.2,70.1,54,70.1h44.9h44.9c29.8,0,54-31.4,54-70.1v-157.1
	C187.7-2343.7,144.7-2406.2,88.8-2416.8z M172-2124.9c0,32.6-20.3,59-45.4,59H88.8H51c-25.1,0-45.4-26.4-45.4-59v-132.2
	c0-63.6,36.1-116.2,83.2-125.1c47.1,8.9,83.2,61.6,83.2,125.1V-2124.9z"/>
<path d="M-667.3-2416.8c-56,10.6-98.9,73.2-98.9,148.7v157.1c0,38.7,24.2,70.1,54,70.1h44.9h44.9c29.8,0,54-31.4,54-70.1v-157.1
	C-568.4-2343.7-611.4-2406.2-667.3-2416.8z M-584.1-2124.9c0,32.6-20.3,59-45.4,59h-37.8h-37.8c-25.1,0-45.4-26.4-45.4-59v-132.2
	c0-63.6,36.1-116.2,83.2-125.1c47.1,8.9,83.2,61.6,83.2,125.1V-2124.9z"/>
<path d="M-64.4-2099.7l-527.3,442.9l64.4,76.7L0-2022.9L-64.4-2099.7z M-180.4-1979.2l110.5-92.9l41.8,49.7l-110.5,92.9
	L-180.4-1979.2z"/>
<polygon points="-118.6,-2223.1 -96.8,-2183.2 -56.9,-2161.4 -96.8,-2139.6 -118.6,-2099.7 -140.5,-2139.6 -180.4,-2161.4 
	-140.5,-2183.2 "/>
<polygon points="129,-2311.8 169,-2238.7 242,-2198.8 169,-2158.8 129,-2085.8 89.1,-2158.8 16,-2198.8 89.1,-2238.7 "/>
<polygon points="42.6,-2055 70.3,-2004.3 120.9,-1976.6 70.3,-1948.9 42.6,-1898.3 14.9,-1948.9 -35.7,-1976.6 14.9,-2004.3 "/>
<path d="M970.7-2917.7c1.1-7.3,0.7-25.9-0.9-32c-3-11.5-8.5-19.7-18.4-27.1c-9.3-7.1-25.1-12.3-36.6-12.3
	c-10.7,0.1-24.6,5-34.9,12.4l-4.8,3.4l-7.2-4.7c-9.4-6.2-11.8-7.3-21.6-9.7c-6.7-1.6-15.7-1.6-23,0.1c-22.2,5.1-35.8,16.5-42.2,35.3
	c-2.4,6.9-2.8,20.9-1.4,32.6c-0.9,11.1-0.6,32.7,0.9,40.6c0.7,4,2.7,12.1,4.4,18.2c2.6,9.4,3.1,13,3.3,25.5
	c0.1,9.7,0.8,16.6,1.9,20.6c3.6,13.1,8.7,29.3,9.6,30.4c0.6,0.6,5.4,1.5,10.7,1.8l9.7,0.6l0.3,11.5c0.2,9.7,0.6,11.9,2.4,14.2
	l2.1,2.8h45.9h45.8v3.5c0,7.9,2.5,7.4-38.6,7.4h-37.3l-1.6,3.6c-2.1,5-2.1,27.8,0,32.8l1.5,3.6l28.8,0.2c27.9,0.4,28.7,0.5,28.7,2.8
	s-0.8,2.4-15.1,3c-10.7,0.5-15.6,1.1-16.8,2.3c-1.3,1.3-1.6,4.2-1.6,17.9c0,15.3,0.1,16.3,2.2,18c2.8,2.4,5.8,2.4,8.4,0.2
	c1.5-1.5,2-3.6,2.4-11.9l0.5-10.1l15.2-0.6c10.6-0.4,15.6-1.1,16.5-2.2c0.9-1.1,1.4-6.2,1.6-15.2c0.3-12.3,0.1-14-1.6-16.6l-2-3
	l-28.1-0.4l-28.1-0.4v-4.1v-4.1l37.1-0.4l37-0.4l1.9-3c1.7-2.7,2-5.1,1.9-18.2c0-11.7-0.3-15.8-1.5-17.6c-1.4-2.3-3-2.4-47.7-3
	l-46.2-0.6v-6.1v-6.1l58-0.6c31.9-0.4,58.1-0.7,58.1-1c0.1-0.1,0.7-2.1,1.4-4.2c0.7-2.1,1.6-5,2-6.3c0.4-1.3,1.7-5.5,2.8-9.1
	c1.1-3.6,2.7-9,3.6-11.9c1.1-3.6,1.6-9.2,1.6-18.9c0-11.5,0.4-15.1,2.4-21.5C970.7-2877,973-2899.6,970.7-2917.7z M944.1-2809.6
	c-0.3,1.8-1.3,5.1-2,7.3l-1.4,4h-65.8h-65.8l-2.1-6.6c-1.2-3.6-1.9-6.9-1.6-7.3c0.3-0.5,31.8-0.7,70-0.7h69.4L944.1-2809.6z
	 M946.2-2867.6c-1.6,7-1.9,10.8-1.9,23.2c0,5-0.1,9-0.3,12.2H806c-0.3-3.8-0.4-8.3-0.5-13.7c-0.2-13.5-0.6-17.4-2.6-27.5
	c-1.4-6.6-3-15.3-3.5-19.7c-0.6-4.2-0.9-11.9-1.1-20.2h0.3c-0.6-8.5-0.2-17.6,1.5-22.4c5.1-15,16-24.1,33.7-28.2
	c5.8-1.4,13-1.4,18.4-0.1c7.8,1.9,9.8,2.8,17.3,7.8l5.8,3.8l3.8-2.7c8.2-5.9,19.3-9.8,27.9-9.9c9.2,0,21.8,4.2,29.3,9.8
	c7.9,5.9,12.3,12.5,14.7,21.7c1,3.7,1.4,13.4,1.1,20.3h0.1C951.7-2898.7,949.7-2882.9,946.2-2867.6z"/>
<path d="M1628.3-841.7c-5.3-20.1-20.9-33.1-45.3-38c-14.1-2.8-30.5,1.2-43.1,10.6c-2.4,1.8-5,3.3-5.9,3.3c-0.8,0-4.4-2-8.1-4.3
	c-13.7-9-29.7-12.6-42.6-9.6c-19.5,4.6-33.6,14.2-39.8,27c-5,10.3-6.1,15.5-6.1,28.4c0,14.4,1,19.7,6.8,37.5
	c2.1,6.5,2.5,10.1,3.1,26.5c0.8,26.3,3.1,41.7,9.5,64c6.6,23,20.1,47.2,34.6,61.9c10.8,11,17.4,13.7,24.4,10.1
	c7.3-3.8,8.4-8.9,5.1-23.5c-4.5-19.9-5.4-36.4-2.6-49.6c1.9-9.2,2.2-10.2,6-18.8c4.7-10.6,12.6-11.3,17.8-1.7
	c5.9,10.7,8.2,21.6,8.1,38.6c0,13.7-0.8,20.1-4.5,35.8c-1.4,6.1-1.5,8.5-0.7,11c3,9,11.7,11.9,21,7.1c5.8-3,22.8-22.1,27-30.4
	c0.7-1.4,2.4-4.5,3.9-7c4.8-8.6,13.7-31.1,16-41c1.7-7.4,3-13.7,4-19c1.7-9.6,3.9-36.1,3.9-47c0-8.2,0.5-11.7,2.1-16
	c1.2-3,3.2-10.2,4.5-16C1630.2-814.3,1630.7-832.9,1628.3-841.7z M1599.3-775.6c-0.3,3.5-0.9,7.9-1.3,9.7c-0.6,2.6-0.6,4.7,0,9.6
	c0.8,6.4,1.5,22.1,1.3,27.9c-0.2,3.2-0.4,7-0.8,11.4c-0.6,6-3.8,19.8-5.9,25.2c-0.6,1.6-1.4,3.5-1.7,4.4
	c-1.7,5.2-9.8,17.6-12.8,19.7c-4.8,3.5-9.8,2.4-12.2-2.7c-0.6-1.4-0.7-2.8-0.4-6.5c0.9-9.5,0.9-13.3-0.1-21.4
	c-1.2-10-4.2-15.7-7.3-22.1c-7-14.6-17.8-16.5-22.4-16.5l0,0.1c-0.2,0-0.5-0.1-1-0.1c-0.5,0-0.8,0.1-1,0.1l0-0.1
	c-4.6,0.1-15.4,2-22.4,16.5c-3.1,6.4-6.1,12.1-7.3,22.1c-1,8.1-1,11.9-0.1,21.4c0.3,3.7,0.2,5.1-0.4,6.5c-2.3,5.1-7.4,6.2-12.2,2.7
	c-3-2.2-11-14.6-12.8-19.7c-0.3-0.9-1-2.8-1.7-4.4c-2-5.4-5.3-19.2-5.9-25.2c-0.4-4.5-0.7-8.3-0.8-11.4c-0.2-5.8,0.5-21.5,1.3-27.9
	c0.6-4.8,0.6-6.9,0-9.6c-0.4-1.8-1-6.2-1.3-9.7c-0.6-7.5,0.4-18.5,2.4-23.5c4.4-11.5,14-18,27.9-19.2c0.8-0.1,1.6-0.1,2.4-0.1v0
	h64.2c0.2,0,0.4,0,0.5,0h1.7v0.1c13.7,1.3,23.2,7.8,27.6,19.2C1598.8-794.1,1599.9-783.1,1599.3-775.6z"/>
<rect x="1487.3" y="-758.8" width="91.9" height="157"/>
<path d="M926.7-1228.7c-5.3-20.1-20.9-33.1-45.3-38c-14.1-2.8-30.5,1.2-43.1,10.6c-2.4,1.8-5,3.3-5.9,3.3c-0.8,0-4.4-2-8.1-4.3
	c-13.7-9-29.7-12.6-42.6-9.6c-19.5,4.6-33.6,14.2-39.8,27c-5,10.3-6.1,15.5-6.1,28.4c0,14.4,1,19.7,6.8,37.5
	c2.1,6.5,2.5,10.1,3.1,26.5c0.8,26.3,3.1,41.7,9.5,64c6.6,23,20.1,47.2,34.6,61.9c8.1,8.3,13.9,11.8,19.2,11.6
	c1.9,0,3.7-0.5,5.6-1.5c7.3-3.8,8.4-8.9,5.1-23.5c-4.5-19.9-5.4-36.4-2.6-49.6c1.9-9.2,2.2-10.2,6-18.8c2.4-5.5,5.8-8.4,9.1-8.4
	c3,0.1,5.9,2.3,8.3,6.7c1.7,3,3,6,4.1,9.2c-0.1-0.6-0.2-1.2-0.3-1.9c3.4,8.6,4.7,18.1,4.6,31.2c0,11.2-0.5,17.5-2.7,28
	c-0.1-0.1-0.2-0.1-0.3-0.2c-0.5,2.4-1.1,5-1.8,8c-1.4,6.1-1.5,8.5-0.7,11c2.1,6.2,6.9,9.5,12.7,9.4c2.7,0,5.6-0.7,8.6-2.3
	c2.7-1.4,8-6.4,13.2-12.2v-0.4c5.7-6.3,11.3-13.5,13.5-17.8c0.7-1.4,2.4-4.5,3.9-7c4.8-8.6,13.7-31.1,16-41c1.7-7.4,3-13.7,4-19
	c1.7-9.6,3.9-36.1,3.9-47c0-8.2,0.5-11.7,2.1-16c1.2-3,3.2-10.2,4.5-16C928.6-1201.3,929.1-1219.9,926.7-1228.7z M906.6-1178.3
	c-1,4.6-2.6,10.3-3.6,12.7c-1.3,3.4-1.7,6.2-1.7,12.7c0,8.6-1.7,29.6-3.1,37.2c-0.8,4.2-1.8,9.2-3.2,15c-1.8,7.8-8.9,25.6-12.7,32.4
	c-1.2,2-2.5,4.4-3.1,5.5c-1.3,2.5-4.1,6.3-7.3,10.2c-3.1,0.4-5.9-1.3-7.5-4.7c-0.6-1.4-0.7-2.8-0.4-6.5c0.9-9.5,0.9-13.3-0.1-21.4
	c-1.2-10-4.2-15.7-7.3-22.1c-7-14.6-17.8-16.5-22.4-16.5l0,0.1c-0.2,0-0.5-0.1-1-0.1c-0.5,0-0.8,0.1-1,0.1l0-0.1
	c-4.6,0.1-15.4,2-22.4,16.5c-3.1,6.4-6.1,12.1-7.3,22.1c-1,8.1-1,11.9-0.1,21.4c0.3,3.7,0.2,5.1-0.4,6.5c-1.9,4.1-5.5,5.6-9.4,4.2
	c-9-11.5-16.8-26.9-21.1-41.8c-5.1-17.6-6.9-29.8-7.5-50.6c-0.5-13-0.8-15.8-2.5-21c-4.6-14.1-5.4-18.3-5.4-29.7
	c0-10.2,0.9-14.3,4.8-22.5c4.9-10.1,16.1-17.7,31.5-21.4c10.2-2.4,22.9,0.5,33.7,7.6c2.9,1.8,5.8,3.4,6.4,3.4c0.7,0,2.8-1.2,4.7-2.6
	c10-7.4,22.9-10.6,34.1-8.4c19.3,3.9,31.6,14.2,35.8,30.1C909.2-1202.9,908.8-1188.2,906.6-1178.3z"/>
<path d="M1049.2-1166.7c-15.5-6.8-31.7-3.5-47.3,9.6c-8.9,7.6-14.7,20.1-15.1,32.9c-0.1,2.4-0.4,4.9-0.9,5.4c-0.4,0.5-3.5,1.8-6.9,3
	c-12.7,4.2-23.1,12.6-27.7,22.3c-7,14.8-8,28.7-3,39.1c4,8.4,6.8,11.8,15,18.3c9.2,7.3,13.1,9.4,27.4,14.7c5.2,2,7.7,3.5,18.5,11.5
	c17.2,12.8,28.2,19.2,45.7,26.4c18,7.5,40.3,11.1,57.1,9.3c9.4-1,14.6-2.8,17.1-6.4c0.9-1.2,1.5-2.6,1.9-4.3
	c1.3-6.6-1.4-9.9-12.4-15.2c-15-7.2-26-15-33-23.5c-4.9-5.9-5.4-6.6-9-13.4c-2.3-4.4-2.4-7.9-0.8-10.1c1.6-1.8,4.5-2.6,8.5-1.9
	c2.8,0.5,5.4,1.1,8,2c-0.5-0.3-0.9-0.5-1.4-0.7c7.2,2.2,13.9,6.2,22.3,12.9c7.1,5.7,10.9,9.2,16.5,16c-0.1,0-0.2,0.1-0.3,0.1
	c1.3,1.5,2.6,3.2,4.2,5.2c3.2,4,4.7,5.3,6.7,6c5,1.8,9.6,0.4,12.5-3.4c1.4-1.7,2.4-4,2.9-6.7c0.5-2.5-0.1-8.4-1.1-14.6l-0.3-0.2
	c-1.2-6.9-2.9-14.1-4.5-17.6c-0.5-1.2-1.7-3.8-2.5-6c-3.1-7.4-12.9-24.5-18.1-31c-3.9-4.8-7.2-8.9-10.1-12.2
	c-5.3-6-21.1-20.8-28-26.3c-5.2-4.2-7.2-6.3-9.2-9.5c-1.3-2.3-4.9-7.2-7.9-11C1067.6-1154,1056-1163.7,1049.2-1166.7z
	 M1071.1-1128.3c2.4,3,5.2,6.9,6.3,8.7c1.5,2.5,3.1,4.2,7.2,7.5c5.5,4.4,18,16.1,22.2,20.8c2.3,2.6,4.9,5.8,8,9.6
	c4.1,5.1,11.9,18.7,14.3,24.5c0.7,1.8,1.5,3.9,2,4.8c1,2.1,2,5.8,2.8,9.8c-1.4,2.2-3.8,3.1-6.8,2.4c-1.2-0.3-2.2-1-4.4-3
	c-5.6-5.4-8-7.3-13.7-10.8c-7-4.3-12.2-5.3-17.8-6.6c-12.9-2.9-19.5,3-21.9,5.9l0.1,0c-0.1,0.1-0.3,0.3-0.6,0.6
	c-0.2,0.3-0.4,0.6-0.5,0.7l0,0c-2.3,3-6.5,10.8-0.8,22.7c2.5,5.3,4.6,10.1,10.4,15.9c4.6,4.7,7.1,6.7,13.6,10.9
	c2.5,1.7,3.4,2.5,4,3.6c1.7,3.3,0.8,6.4-2.1,8.1c-11.9-0.1-25.8-2.9-37.4-7.7c-13.8-5.7-22.5-10.7-36.1-20.9
	c-8.5-6.3-10.5-7.5-14.6-9.1c-11.3-4.2-14.4-5.8-21.7-11.6c-6.5-5.2-8.7-7.8-11.9-14.5c-4-8.3-3.2-19.2,2.3-30.9
	c3.7-7.7,11.9-14.4,21.9-17.7c2.6-0.9,5.1-2,5.4-2.4c0.4-0.5,0.6-2.4,0.7-4.3c0.3-10.1,4.9-20,11.9-26c12.3-10.4,25.1-13,37.4-7.6
	C1056.7-1142.4,1065.9-1134.7,1071.1-1128.3z"/>
<path d="M747.2-1162.8h-45.3c-5,0-9.1-4.1-9.1-9.1l0,0c0-5,4.1-9.1,9.1-9.1h45.3c5,0,9.1,4.1,9.1,9.1l0,0
	C756.3-1166.8,752.2-1162.8,747.2-1162.8z"/>
<path d="M1031-1174.4L921-1162.8c-5,0-9.1-4.1-9.1-9.1l0,0c0-5,4.1-9.1,9.1-9.1l115.3-5.5c5,0,142.5,0,141.4,14.6l0,0
	c0,4.8-126.7-2-143.6-2.7C1033.1-1174.6,1032.1-1174.5,1031-1174.4z"/>
<path d="M917.7-1743.8c-5.3-20.1-20.9-33.1-45.3-38c-14.1-2.8-30.5,1.2-43.1,10.6c-2.4,1.8-5,3.3-5.9,3.3c-0.8,0-4.4-2-8.1-4.3
	c-13.7-9-29.7-12.6-42.6-9.6c-19.5,4.6-33.6,14.2-39.8,27c-5,10.3-6.1,15.5-6.1,28.4c0,14.4,1,19.7,6.8,37.5
	c2.1,6.5,2.5,10.1,3.1,26.5c0.8,26.3,3.1,41.7,9.5,64c6.6,23,20.1,47.2,34.6,61.9c8.1,8.3,13.9,11.8,19.2,11.6
	c1.9,0,3.7-0.5,5.6-1.5c7.3-3.8,8.4-8.9,5.1-23.5c-4.5-19.9-5.4-36.4-2.6-49.6c1.9-9.2,2.2-10.2,6-18.8c2.4-5.5,5.8-8.4,9.1-8.4
	c3,0.1,5.9,2.3,8.3,6.7c1.7,3,3,6,4.1,9.2c-0.1-0.6-0.2-1.2-0.3-1.9c3.4,8.6,4.7,18.1,4.6,31.2c0,11.2-0.5,17.5-2.7,28
	c-0.1-0.1-0.2-0.1-0.3-0.2c-0.5,2.4-1.1,5-1.8,8c-1.4,6.1-1.5,8.5-0.7,11c2.1,6.2,6.9,9.5,12.7,9.4c2.7,0,5.6-0.7,8.6-2.3
	c2.7-1.4,8-6.4,13.2-12.2v-0.4c5.7-6.3,11.3-13.5,13.5-17.8c0.7-1.4,2.4-4.5,3.9-7c4.8-8.6,13.7-31.1,16-41c1.7-7.4,3-13.7,4-19
	c1.7-9.6,3.9-36.1,3.9-47c0-8.2,0.5-11.7,2.1-16c1.2-3,3.2-10.2,4.5-16C919.6-1716.4,920.1-1735,917.7-1743.8z M897.6-1693.4
	c-1,4.6-2.6,10.3-3.6,12.7c-1.3,3.4-1.7,6.2-1.7,12.7c0,8.6-1.7,29.6-3.1,37.2c-0.8,4.2-1.8,9.2-3.2,15c-1.8,7.8-8.9,25.6-12.7,32.4
	c-1.2,2-2.5,4.4-3.1,5.5c-1.3,2.5-4.1,6.3-7.3,10.2c-3.1,0.4-5.9-1.3-7.5-4.7c-0.6-1.4-0.7-2.8-0.4-6.5c0.9-9.5,0.9-13.3-0.1-21.4
	c-1.2-10-4.2-15.7-7.3-22.1c-7-14.6-17.8-16.5-22.4-16.5l0,0.1c-0.2,0-0.5-0.1-1-0.1c-0.5,0-0.8,0.1-1,0.1l0-0.1
	c-4.6,0.1-15.4,2-22.4,16.5c-3.1,6.4-6.1,12.1-7.3,22.1c-1,8.1-1,11.9-0.1,21.4c0.3,3.7,0.2,5.1-0.4,6.5c-1.9,4.1-5.5,5.6-9.4,4.2
	c-9-11.5-16.8-26.9-21.1-41.8c-5.1-17.6-6.9-29.8-7.5-50.6c-0.5-13-0.8-15.8-2.5-21c-4.6-14.1-5.4-18.3-5.4-29.7
	c0-10.2,0.9-14.3,4.8-22.5c4.9-10.1,16.1-17.7,31.5-21.4c10.2-2.4,22.9,0.5,33.7,7.6c2.9,1.8,5.8,3.4,6.4,3.4c0.7,0,2.8-1.2,4.7-2.6
	c10-7.4,22.9-10.6,34.1-8.4c19.3,3.9,31.6,14.2,35.8,30.1C900.2-1718,899.8-1703.3,897.6-1693.4z"/>
<path d="M738.2-1677.9h-45.3c-5,0-9.1-4.1-9.1-9.1l0,0c0-5,4.1-9.1,9.1-9.1h45.3c5,0,9.1,4.1,9.1,9.1l0,0
	C747.3-1681.9,743.2-1677.9,738.2-1677.9z"/>
<path d="M951.6-1677.9h-43c-5,0-9.1-4.1-9.1-9.1l0,0c0-5,4.1-9.1,9.1-9.1h43c5,0,9.1,4.1,9.1,9.1l0,0
	C960.6-1681.9,956.6-1677.9,951.6-1677.9z"/>
<path d="M-638.4-309.4c-54.6,8-96.5,55-96.5,111.9v118.2c0,29.1,23.6,52.7,52.7,52.7h43.8h43.8c29.1,0,52.7-23.6,52.7-52.7v-118.2
	C-541.9-254.4-583.8-301.5-638.4-309.4z M-557.2-89.9c0,24.5-19.9,44.3-44.3,44.3h-36.9h-36.9c-24.5,0-44.3-19.9-44.3-44.3v-99.4
	c0-47.8,35.3-87.4,81.2-94.1c46,6.7,81.2,46.3,81.2,94.1V-89.9z"/>
<path d="M-444-310.1c-54.6,8-96.5,55-96.5,111.9v118.2c0,29.1,23.6,52.7,52.7,52.7h43.8h43.8c29.1,0,52.7-23.6,52.7-52.7v-118.2
	C-347.4-255.1-389.4-302.1-444-310.1z M-362.7-90.6c0,24.5-19.9,44.3-44.3,44.3H-444h-36.9c-24.5,0-44.3-19.9-44.3-44.3V-190
	c0-47.8,35.3-87.4,81.2-94.1c46,6.7,81.2,46.3,81.2,94.1V-90.6z"/>
<path d="M-286.1-284.2c-38.2,7.3-67.6,50-67.6,101.6v107.3c0,26.4,16.5,47.9,36.9,47.9h30.7h30.7c20.4,0,36.9-21.4,36.9-47.9v-107.3
	C-218.6-234.2-247.9-276.9-286.1-284.2z M-229.3-84.8c0,22.2-13.9,40.3-31,40.3h-25.8H-312c-17.1,0-31-18-31-40.3v-90.3
	c0-43.4,24.7-79.4,56.8-85.5c32.2,6.1,56.8,42,56.8,85.5V-84.8z"/>
<path d="M-802.5-284.2c-38.2,7.3-67.6,50-67.6,101.6v107.3c0,26.4,16.5,47.9,36.9,47.9h30.7h30.7c20.4,0,36.9-21.4,36.9-47.9v-107.3
	C-735-234.2-764.3-276.9-802.5-284.2z M-745.7-84.8c0,22.2-13.9,40.3-31,40.3h-25.8h-25.8c-17.1,0-31-18-31-40.3v-90.3
	c0-43.4,24.7-79.4,56.8-85.5c32.2,6.1,56.8,42,56.8,85.5V-84.8z"/>
<path d="M-390.8-67.5L-750.9,235l44,52.4l360.1-302.5L-390.8-67.5z M-470,14.7l75.5-63.4l28.5,33.9l-75.5,63.4L-470,14.7z"/>
<polygon points="-427.8,-151.9 -412.9,-124.6 -385.6,-109.7 -412.9,-94.8 -427.8,-67.5 -442.7,-94.8 -470,-109.7 -442.7,-124.6 "/>
<polygon points="-258.6,-212.4 -231.3,-162.5 -181.5,-135.2 -231.3,-107.9 -258.6,-58 -285.9,-107.9 -335.8,-135.2 -285.9,-162.5 
	"/>
<polygon points="-317.7,-37 -298.8,-2.4 -264.2,16.5 -298.8,35.4 -317.7,70 -336.6,35.4 -371.2,16.5 -336.6,-2.4 "/>
<path d="M-621.9-689.9c-54,7.9-95.5,54.4-95.5,110.7v116.9c0,28.8,23.3,52.1,52.1,52.1h43.4h43.4c28.8,0,52.1-23.3,52.1-52.1v-116.9
	C-526.4-635.5-567.9-682-621.9-689.9z M-541.6-472.8c0,24.2-19.6,43.9-43.9,43.9h-36.5h-36.5c-24.2,0-43.9-19.6-43.9-43.9v-98.4
	c0-47.3,34.9-86.4,80.4-93.1c45.5,6.7,80.4,45.8,80.4,93.1V-472.8z"/>
<path d="M-429.5-690.6c-54,7.9-95.5,54.4-95.5,110.7V-463c0,28.8,23.3,52.1,52.1,52.1h43.4h43.4c28.8,0,52.1-23.3,52.1-52.1v-116.9
	C-334-636.2-375.5-682.7-429.5-690.6z M-349.2-473.4c0,24.2-19.6,43.9-43.9,43.9h-36.5H-466c-24.2,0-43.9-19.6-43.9-43.9v-98.4
	c0-47.3,34.9-86.4,80.4-93.1c45.5,6.7,80.4,45.8,80.4,93.1V-473.4z"/>
<path d="M-273.4-664.9c-37.8,7.2-66.8,49.4-66.8,100.5v106.2c0,26.1,16.3,47.3,36.5,47.3h30.3h30.3c20.1,0,36.5-21.2,36.5-47.3
	v-106.2C-206.6-615.5-235.6-657.7-273.4-664.9z M-217.2-467.7c0,22-13.7,39.8-30.7,39.8h-25.5H-299c-17,0-30.7-17.8-30.7-39.8V-557
	c0-43,24.4-78.5,56.2-84.5c31.8,6,56.2,41.6,56.2,84.5V-467.7z"/>
<path d="M-784.2-664.9c-37.8,7.2-66.8,49.4-66.8,100.5v106.2c0,26.1,16.3,47.3,36.5,47.3h30.3h30.3c20.1,0,36.5-21.2,36.5-47.3
	v-106.2C-717.4-615.5-746.4-657.7-784.2-664.9z M-728-467.7c0,22-13.7,39.8-30.7,39.8h-25.5h-25.5c-17,0-30.7-17.8-30.7-39.8V-557
	c0-43,24.4-78.5,56.2-84.5c31.8,6,56.2,41.6,56.2,84.5V-467.7z"/>
<path d="M-599.2-564h-41.7c-12.2,0-22,9.9-22,22v41.7c0,12.2,9.9,22,22,22h41.7c12.2,0,22-9.9,22-22v-41.7
	C-577.2-554.1-587.1-564-599.2-564z M-588.2-511.3c0,12.2-9.9,22-22,22h-19.7c-12.2,0-22-9.9-22-22v-19.7c0-12.2,9.9-22,22-22h19.7
	c12.2,0,22,9.9,22,22V-511.3z"/>
<path d="M-408.7-564h-41.7c-12.2,0-22,9.9-22,22v41.7c0,12.2,9.9,22,22,22h41.7c12.2,0,22-9.9,22-22v-41.7
	C-386.7-554.1-396.6-564-408.7-564z M-397.7-511.3c0,12.2-9.9,22-22,22h-19.7c-12.2,0-22-9.9-22-22v-19.7c0-12.2,9.9-22,22-22h19.7
	c12.2,0,22,9.9,22,22V-511.3z"/>
<path d="M-238.3-564h-28.5c-8.3,0-15.1,9.9-15.1,22v41.7c0,12.2,6.7,22,15.1,22h28.5c8.3,0,15.1-9.9,15.1-22v-41.7
	C-223.3-554.1-230-564-238.3-564z M-230.8-511.3c0,12.2-6.7,22-15.1,22h-13.5c-8.3,0-15.1-9.9-15.1-22v-19.7c0-12.2,6.7-22,15.1-22
	h13.5c8.3,0,15.1,9.9,15.1,22V-511.3z"/>
<path d="M-790.6-564h-28.5c-8.3,0-15.1,9.9-15.1,22v41.7c0,12.2,6.7,22,15.1,22h28.5c8.3,0,15.1-9.9,15.1-22v-41.7
	C-775.6-554.1-782.3-564-790.6-564z M-783.1-511.3c0,12.2-6.7,22-15.1,22h-13.5c-8.3,0-15.1-9.9-15.1-22v-19.7
	c0-12.2,6.7-22,15.1-22h13.5c8.3,0,15.1,9.9,15.1,22V-511.3z"/>
<rect x="-778.1" y="-529.6" width="117" height="12.8"/>
<rect x="-580.1" y="-529.6" width="113.4" height="12.8"/>
<rect x="-391.2" y="-529.6" width="111.8" height="12.8"/>
<rect x="-226.7" y="-529.6" width="49.8" height="12.8"/>
<rect x="-870.9" y="-529.6" width="39.7" height="12.8"/>
<path d="M231.9-276.5c-5.3-20.1-20.9-33.1-45.3-38c-14.1-2.8-30.5,1.2-43.1,10.6c-2.4,1.8-5,3.3-5.9,3.3c-0.8,0-4.4-2-8.1-4.3
	c-13.7-9-29.7-12.6-42.6-9.6c-19.5,4.6-33.6,14.2-39.8,27c-5,10.3-6.1,15.5-6.1,28.4c0,14.4,1,19.7,6.8,37.5
	c2.1,6.5,2.5,10.1,3.1,26.5c0.8,26.3,3.1,41.7,9.5,64c6.6,23,20.1,47.2,34.6,61.9c8.1,8.3,13.9,11.8,19.2,11.6
	c1.9,0,3.7-0.5,5.6-1.5c7.3-3.8,8.4-8.9,5.1-23.5c-4.5-19.9-5.4-36.4-2.6-49.6c1.9-9.2,2.2-10.2,6-18.8c2.4-5.5,5.8-8.4,9.1-8.4
	c3,0.1,5.9,2.3,8.3,6.7c1.7,3,3,6,4.1,9.2c-0.1-0.6-0.2-1.2-0.3-1.9c3.4,8.6,4.7,18.1,4.6,31.2c0,11.2-0.5,17.5-2.7,28
	c-0.1-0.1-0.2-0.1-0.3-0.2c-0.5,2.4-1.1,5-1.8,8c-1.4,6.1-1.5,8.5-0.7,11c2.1,6.2,6.9,9.5,12.7,9.4c2.7,0,5.6-0.7,8.6-2.3
	c2.7-1.4,8-6.4,13.2-12.2v-0.4c5.7-6.3,11.3-13.5,13.5-17.8c0.7-1.4,2.4-4.5,3.9-7c4.8-8.6,13.7-31.1,16-41c1.7-7.4,3-13.7,4-19
	c1.7-9.6,3.9-36.1,3.9-47c0-8.2,0.5-11.7,2.1-16c1.2-3,3.2-10.2,4.5-16C233.8-249.1,234.3-267.7,231.9-276.5z M211.8-226.1
	c-1,4.6-2.6,10.3-3.6,12.7c-1.3,3.4-1.7,6.2-1.7,12.7c0,8.6-1.7,29.6-3.1,37.2c-0.8,4.2-1.8,9.2-3.2,15c-1.8,7.8-8.9,25.6-12.7,32.4
	c-1.2,2-2.5,4.4-3.1,5.5c-1.3,2.5-4.1,6.3-7.3,10.2c-3.1,0.4-5.9-1.3-7.5-4.7c-0.6-1.4-0.7-2.8-0.4-6.5c0.9-9.5,0.9-13.3-0.1-21.4
	c-1.2-10-4.2-15.7-7.3-22.1c-7-14.6-17.8-16.5-22.4-16.5l0,0.1c-0.2,0-0.5-0.1-1-0.1c-0.5,0-0.8,0.1-1,0.1l0-0.1
	c-4.6,0.1-15.4,2-22.4,16.5c-3.1,6.4-6.1,12.1-7.3,22.1c-1,8.1-1,11.9-0.1,21.4c0.3,3.7,0.2,5.1-0.4,6.5c-1.9,4.1-5.5,5.6-9.4,4.2
	c-9-11.5-16.8-26.9-21.1-41.8c-5.1-17.6-6.9-29.8-7.5-50.6c-0.5-13-0.8-15.8-2.5-21c-4.6-14.1-5.4-18.3-5.4-29.7
	c0-10.2,0.9-14.3,4.8-22.5c4.9-10.1,16.1-17.7,31.5-21.4c10.2-2.4,22.9,0.5,33.7,7.6c2.9,1.8,5.8,3.4,6.4,3.4c0.7,0,2.8-1.2,4.7-2.6
	c10-7.4,22.9-10.6,34.1-8.4c19.3,3.9,31.6,14.2,35.8,30.1C214.4-250.7,214-236,211.8-226.1z"/>
<path d="M52.4-210.6H7.1c-5,0-9.1-4.1-9.1-9.1v0c0-5,4.1-9.1,9.1-9.1h45.3c5,0,9.1,4.1,9.1,9.1v0C61.5-214.6,57.4-210.6,52.4-210.6z
	"/>
<path d="M265.8-210.6h-43c-5,0-9.1-4.1-9.1-9.1v0c0-5,4.1-9.1,9.1-9.1h43c5,0,9.1,4.1,9.1,9.1v0
	C274.8-214.6,270.8-210.6,265.8-210.6z"/>
<path d="M238.2-653.1c-5.1-19.5-20.3-32.1-43.9-36.8c-13.7-2.7-29.6,1.2-41.8,10.3c-2.3,1.7-4.8,3.2-5.7,3.2c-0.8,0-4.3-1.9-7.8-4.2
	c-13.3-8.7-28.8-12.2-41.3-9.3c-18.9,4.5-32.6,13.8-38.6,26.2c-4.8,10-5.9,15-5.9,27.5c0,14,1,19.1,6.6,36.3c2,6.3,2.4,9.8,3,25.7
	c0.8,25.5,3,40.4,9.2,62c6.4,22.3,19.5,45.7,33.5,60c7.9,8,13.4,11.5,18.6,11.2c1.8,0,3.6-0.5,5.4-1.4c7.1-3.7,8.1-8.6,4.9-22.8
	c-4.4-19.3-5.2-35.3-2.5-48.1c1.8-8.9,2.1-9.9,5.8-18.2c2.4-5.4,5.6-8.1,8.8-8.2c2.9,0.1,5.7,2.3,8.1,6.5c1.6,2.9,2.9,5.9,4,8.9
	c-0.1-0.6-0.2-1.2-0.3-1.8c3.2,8.3,4.6,17.5,4.5,30.3c0,10.8-0.5,17-2.7,27.1c-0.1-0.1-0.2-0.1-0.3-0.2c-0.5,2.3-1.1,4.9-1.7,7.7
	c-1.4,5.9-1.5,8.2-0.7,10.7c2,6,6.7,9.2,12.3,9.1c2.6,0,5.5-0.7,8.4-2.2c2.7-1.4,7.7-6.2,12.8-11.8v-0.4c5.5-6.1,10.9-13.1,13-17.3
	c0.7-1.4,2.3-4.4,3.8-6.8c4.7-8.3,13.3-30.1,15.5-39.7c1.6-7.2,2.9-13.3,3.9-18.4c1.6-9.3,3.8-35,3.8-45.5c0-7.9,0.5-11.3,2-15.5
	c1.2-2.9,3.1-9.9,4.4-15.5C240-626.6,240.5-644.6,238.2-653.1z M218.7-604.3c-1,4.4-2.5,10-3.4,12.3c-1.2,3.3-1.6,6-1.6,12.3
	c0,8.4-1.7,28.7-3,36c-0.8,4.1-1.8,8.9-3.1,14.6c-1.8,7.6-8.6,24.8-12.3,31.4c-1.1,1.9-2.5,4.3-3,5.4c-1.2,2.5-3.9,6.1-7,9.9
	c-3,0.3-5.7-1.2-7.2-4.5c-0.6-1.4-0.7-2.7-0.4-6.3c0.9-9.2,0.9-12.9-0.1-20.7c-1.1-9.7-4.1-15.2-7.1-21.5
	c-6.8-14.1-17.3-15.9-21.7-16l0,0.1c-0.2,0-0.5-0.1-1-0.1c-0.5,0-0.8,0-1,0.1l0-0.1c-4.5,0.1-14.9,1.9-21.7,16
	c-3,6.2-5.9,11.8-7.1,21.5c-1,7.8-1,11.5-0.1,20.7c0.3,3.6,0.2,4.9-0.4,6.3c-1.8,4-5.3,5.4-9.1,4.1c-8.7-11.1-16.3-26.1-20.4-40.5
	c-4.9-17.1-6.7-28.9-7.3-49.1c-0.5-12.6-0.8-15.3-2.4-20.3c-4.4-13.6-5.2-17.7-5.2-28.7c0-9.9,0.8-13.9,4.7-21.8
	c4.8-9.8,15.6-17.2,30.5-20.7c9.9-2.3,22.2,0.5,32.7,7.4c2.8,1.8,5.6,3.3,6.2,3.3c0.7,0,2.7-1.1,4.5-2.5c9.7-7.2,22.2-10.3,33-8.1
	c18.7,3.8,30.7,13.7,34.7,29.1C221.2-628.2,220.9-613.9,218.7-604.3z"/>
<path d="M356.9-593c-15-6.6-30.8-3.3-45.8,9.3c-8.7,7.3-14.3,19.5-14.6,31.9c-0.1,2.4-0.4,4.7-0.9,5.3c-0.4,0.5-3.4,1.7-6.6,2.9
	c-12.3,4.1-22.4,12.2-26.9,21.6c-6.7,14.3-7.7,27.8-2.9,37.9c3.9,8.2,6.6,11.4,14.6,17.7c8.9,7.1,12.7,9.1,26.6,14.2
	c5.1,1.9,7.5,3.4,17.9,11.1c16.7,12.4,27.3,18.6,44.3,25.6c17.5,7.2,39.1,10.8,55.3,9c9.1-1,14.2-2.8,16.6-6.2
	c0.9-1.2,1.5-2.6,1.8-4.2c1.2-6.4-1.4-9.6-12-14.7c-14.5-7-25.2-14.6-32-22.8c-4.8-5.7-5.2-6.4-8.7-13c-2.2-4.2-2.3-7.7-0.7-9.8
	c1.5-1.8,4.4-2.5,8.3-1.8c2.7,0.5,5.2,1.1,7.7,2c-0.4-0.2-0.9-0.5-1.3-0.7c7,2.1,13.5,6,21.6,12.5c6.9,5.5,10.6,8.9,16,15.5
	c-0.1,0-0.2,0.1-0.3,0.1c1.2,1.5,2.6,3.1,4,5c3.1,3.9,4.5,5.1,6.5,5.8c4.9,1.8,9.3,0.4,12.1-3.3c1.3-1.7,2.3-3.8,2.8-6.5
	c0.5-2.4-0.1-8.1-1.1-14.2l-0.2-0.2c-1.1-6.6-2.8-13.6-4.4-17.1c-0.5-1.1-1.6-3.7-2.4-5.9c-3-7.2-12.5-23.8-17.5-30.1
	c-3.7-4.7-7-8.6-9.8-11.8c-5.1-5.8-20.4-20.2-27.2-25.5c-5.1-4-7-6.1-8.9-9.2c-1.3-2.2-4.7-7-7.7-10.7
	C374.8-580.7,363.5-590.2,356.9-593z M378.2-555.8c2.3,2.9,5.1,6.7,6.1,8.4c1.5,2.5,3,4.1,7,7.3c5.3,4.2,17.5,15.6,21.5,20.2
	c2.2,2.6,4.8,5.6,7.7,9.3c4,5,11.5,18.1,13.8,23.8c0.6,1.7,1.5,3.7,1.9,4.6c0.9,2,1.9,5.6,2.7,9.5c-1.3,2.1-3.7,3-6.6,2.3
	c-1.2-0.3-2.1-0.9-4.2-2.9c-5.4-5.2-7.8-7.1-13.3-10.4c-6.8-4.2-11.8-5.1-17.3-6.4c-12.5-2.8-18.9,2.9-21.3,5.7l0.1,0
	c-0.1,0.1-0.3,0.3-0.5,0.6c-0.2,0.3-0.4,0.5-0.5,0.7l0,0c-2.2,2.9-6.3,10.5-0.8,22c2.5,5.1,4.5,9.8,10.1,15.4
	c4.5,4.6,6.8,6.5,13.2,10.6c2.4,1.6,3.3,2.4,3.8,3.5c1.6,3.2,0.8,6.2-2,7.9c-11.5-0.1-25-2.8-36.2-7.5c-13.4-5.5-21.8-10.4-35-20.2
	c-8.3-6.1-10.2-7.3-14.2-8.8c-11-4.1-14-5.7-21-11.3c-6.3-5-8.4-7.6-11.5-14c-3.9-8-3.1-18.7,2.3-30c3.5-7.5,11.5-13.9,21.3-17.1
	c2.6-0.9,4.9-1.9,5.3-2.3c0.4-0.4,0.6-2.3,0.7-4.2c0.3-9.8,4.7-19.4,11.6-25.2c11.9-10,24.3-12.6,36.2-7.4
	C364.2-569.5,373.1-562.1,378.2-555.8z"/>
<path d="M64.3-589.3H20.4c-4.8,0-8.8-3.9-8.8-8.8v0c0-4.8,3.9-8.8,8.8-8.8h43.9c4.8,0,8.8,3.9,8.8,8.8v0
	C73.1-593.2,69.1-589.3,64.3-589.3z"/>
<path d="M339.3-600.6l-106.5,11.3c-4.8,0-8.8-3.9-8.8-8.8l0,0c0-4.8,3.9-8.8,8.8-8.8l111.8-5.3c4.8,0,138.1,0,137.1,14.1l0,0
	c0,4.6-122.8-1.9-139.1-2.6C341.4-600.7,340.3-600.7,339.3-600.6z"/>
<path d="M555.5-240.8c1.1-7.3,0.7-25.9-0.9-32c-3-11.5-8.5-19.7-18.4-27.1c-9.3-7.1-25.1-12.3-36.6-12.3c-10.7,0.1-24.6,5-34.9,12.4
	l-4.8,3.4l-7.2-4.7c-9.4-6.2-11.8-7.3-21.6-9.7c-6.7-1.6-15.7-1.6-23,0.1c-22.2,5.1-35.8,16.5-42.2,35.3c-2.4,6.9-2.8,20.9-1.4,32.6
	c-0.9,11.1-0.6,32.7,0.9,40.6c0.7,4,2.7,12.1,4.4,18.2c2.6,9.4,3.1,13,3.3,25.5c0.1,9.7,0.8,16.6,1.9,20.6
	c3.6,13.1,8.7,29.3,9.6,30.4c0.6,0.6,5.4,1.5,10.7,1.8l9.7,0.6l0.3,11.5c0.2,9.7,0.6,11.9,2.4,14.2l2.1,2.8h45.9h45.8v3.5
	c0,7.9,2.5,7.4-38.6,7.4h-37.3l-1.6,3.6c-2.1,5-2.1,27.8,0,32.8l1.5,3.6l28.8,0.2c27.9,0.4,28.7,0.5,28.7,2.8c0,2.3-0.8,2.4-15.1,3
	c-10.7,0.5-15.6,1.1-16.8,2.3c-1.3,1.3-1.6,4.3-1.6,17.9c0,15.3,0.1,16.3,2.2,18c2.8,2.4,5.8,2.4,8.4,0.2c1.5-1.5,2-3.6,2.4-11.9
	L463-3l15.2-0.6c10.6-0.4,15.6-1.1,16.5-2.2c0.9-1.1,1.4-6.2,1.6-15.2c0.3-12.3,0.1-14-1.6-16.6l-2-3L464.6-41l-28.1-0.4v-4.1v-4.1
	l37.1-0.4l37-0.4l1.9-3c1.7-2.7,2-5.1,1.9-18.2c0-11.7-0.3-15.8-1.5-17.6c-1.4-2.3-3-2.4-47.7-3L419-92.8v-6.1v-6.1l58-0.6
	c31.9-0.4,58.1-0.7,58.1-1c0.1-0.1,0.7-2.1,1.4-4.3c0.7-2.1,1.6-5,2-6.3c0.4-1.3,1.7-5.5,2.8-9.1c1.1-3.6,2.7-9,3.6-11.9
	c1.1-3.6,1.6-9.2,1.6-18.9c0-11.5,0.4-15.1,2.4-21.5C555.6-200.1,557.8-222.7,555.5-240.8z M529-132.7c-0.3,1.8-1.3,5.1-2,7.3
	l-1.4,4h-65.8H394l-2.1-6.6c-1.2-3.6-1.9-6.9-1.6-7.3c0.3-0.5,31.8-0.7,70-0.7h69.4L529-132.7z M531-190.7c-1.6,7-1.9,10.8-1.9,23.2
	c0,5-0.1,9-0.3,12.2h-138c-0.3-3.8-0.4-8.3-0.5-13.7c-0.2-13.5-0.6-17.4-2.6-27.5c-1.4-6.6-3-15.3-3.5-19.7
	c-0.6-4.2-0.9-11.9-1.1-20.2h0.3c-0.6-8.5-0.2-17.6,1.5-22.4c5.1-15,16-24.1,33.7-28.2c5.8-1.4,13-1.4,18.4-0.1
	c7.8,1.9,9.8,2.8,17.3,7.8l5.8,3.8l3.8-2.7c8.2-5.9,19.3-9.8,27.9-9.9c9.2,0,21.8,4.2,29.3,9.8c7.9,5.9,12.3,12.5,14.7,21.7
	c1,3.7,1.4,13.4,1.1,20.3h0.1C536.5-221.8,534.5-206,531-190.7z"/>
<path d="M2260.9-488.4c-5.3-20.1-20.9-33.1-45.3-38c-14.1-2.8-30.5,1.2-43.1,10.6c-2.4,1.8-5,3.3-5.9,3.3c-0.8,0-4.4-2-8.1-4.3
	c-13.7-9-29.7-12.6-42.6-9.6c-19.5,4.6-33.6,14.2-39.8,27c-5,10.3-6.1,15.5-6.1,28.4c0,14.4,1,19.7,6.8,37.5
	c2.1,6.5,2.5,10.1,3.1,26.5c0.8,26.3,3.1,41.7,9.5,64c6.6,23,20.1,47.2,34.6,61.9c8.1,8.3,13.9,11.8,19.2,11.6
	c1.9,0,3.7-0.5,5.6-1.5c7.3-3.8,8.4-8.9,5.1-23.5c-4.5-19.9-5.4-36.4-2.6-49.6c1.9-9.2,2.2-10.2,6-18.8c2.4-5.5,5.8-8.4,9.1-8.4
	c3,0.1,5.9,2.3,8.3,6.7c1.7,3,3,6,4.1,9.2c-0.1-0.6-0.2-1.2-0.3-1.9c3.4,8.6,4.7,18.1,4.6,31.2c0,11.2-0.5,17.5-2.7,28
	c-0.1-0.1-0.2-0.1-0.3-0.2c-0.5,2.4-1.1,5-1.8,8c-1.4,6.1-1.5,8.5-0.7,11c2.1,6.2,6.9,9.5,12.7,9.4c2.7,0,5.6-0.7,8.6-2.3
	c2.7-1.4,8-6.4,13.2-12.2v-0.4c5.7-6.3,11.3-13.5,13.5-17.8c0.7-1.4,2.4-4.5,3.9-7c4.8-8.6,13.7-31.1,16-41c1.7-7.4,3-13.7,4-19
	c1.7-9.6,3.9-36.1,3.9-47c0-8.2,0.5-11.7,2.1-16c1.2-3,3.2-10.2,4.5-16C2262.8-461,2263.3-479.6,2260.9-488.4z M2240.8-438.1
	c-1,4.6-2.6,10.3-3.6,12.7c-1.3,3.4-1.7,6.2-1.7,12.7c0,8.6-1.7,29.6-3.1,37.2c-0.8,4.2-1.8,9.2-3.2,15c-1.8,7.8-8.9,25.6-12.7,32.4
	c-1.2,2-2.5,4.4-3.1,5.5c-1.3,2.5-4.1,6.3-7.3,10.2c-3.1,0.4-5.9-1.3-7.5-4.7c-0.6-1.4-0.7-2.8-0.4-6.5c0.9-9.5,0.9-13.3-0.1-21.4
	c-1.2-10-4.2-15.7-7.3-22.1c-7-14.6-17.8-16.5-22.4-16.5l0,0.1c-0.2,0-0.5-0.1-1-0.1c-0.5,0-0.8,0.1-1,0.1l0-0.1
	c-4.6,0.1-15.4,2-22.4,16.5c-3.1,6.4-6.1,12.1-7.3,22.1c-1,8.1-1,11.9-0.1,21.4c0.3,3.7,0.2,5.1-0.4,6.5c-1.9,4.1-5.5,5.6-9.4,4.2
	c-9-11.5-16.8-26.9-21.1-41.8c-5.1-17.6-6.9-29.8-7.5-50.6c-0.5-13-0.8-15.8-2.5-21c-4.6-14.1-5.4-18.3-5.4-29.7
	c0-10.2,0.9-14.3,4.8-22.5c4.9-10.1,16.1-17.7,31.5-21.4c10.2-2.4,22.9,0.5,33.7,7.6c2.9,1.8,5.8,3.4,6.4,3.4c0.7,0,2.8-1.2,4.7-2.6
	c10-7.4,22.9-10.6,34.1-8.4c19.3,3.9,31.6,14.2,35.8,30.1C2243.4-462.7,2243-447.9,2240.8-438.1z"/>
<path d="M2081.5-422.5h-45.3c-5,0-9.1-4.1-9.1-9.1v0c0-5,4.1-9.1,9.1-9.1h45.3c5,0,9.1,4.1,9.1,9.1v0
	C2090.5-426.6,2086.5-422.5,2081.5-422.5z"/>
<path d="M2294.8-422.5h-43c-5,0-9.1-4.1-9.1-9.1v0c0-5,4.1-9.1,9.1-9.1h43c5,0,9.1,4.1,9.1,9.1v0
	C2303.8-426.6,2299.8-422.5,2294.8-422.5z"/>
<path d="M231.1,55.5c-5.3-20.1-20.9-33.1-45.3-38c-14.1-2.8-30.5,1.2-43.1,10.6c-2.4,1.8-5,3.3-5.9,3.3c-0.8,0-4.4-2-8.1-4.3
	c-13.7-9-29.7-12.6-42.6-9.6c-19.5,4.6-33.6,14.2-39.8,27c-5,10.3-6.1,15.5-6.1,28.4c0,14.4,1,19.7,6.8,37.5
	c2.1,6.5,2.5,10.1,3.1,26.5c0.8,26.3,3.1,41.7,9.5,64c6.6,23,20.1,47.2,34.6,61.9c8.1,8.3,13.9,11.8,19.2,11.6
	c1.9,0,3.7-0.5,5.6-1.5c7.3-3.8,8.4-8.9,5.1-23.5c-4.5-19.9-5.4-36.4-2.6-49.6c1.9-9.2,2.2-10.2,6-18.8c2.4-5.5,5.8-8.4,9.1-8.4
	c3,0.1,5.9,2.3,8.3,6.7c1.7,3,3,6,4.1,9.2c-0.1-0.6-0.2-1.2-0.3-1.9c3.4,8.6,4.7,18.1,4.6,31.2c0,11.2-0.5,17.5-2.7,28
	c-0.1-0.1-0.2-0.1-0.3-0.2c-0.5,2.4-1.1,5-1.8,8c-1.4,6.1-1.5,8.5-0.7,11c2.1,6.2,6.9,9.5,12.7,9.4c2.7,0,5.6-0.7,8.6-2.3
	c2.7-1.4,8-6.4,13.2-12.2v-0.4c5.7-6.3,11.3-13.5,13.5-17.8c0.7-1.4,2.4-4.5,3.9-7c4.8-8.6,13.7-31.1,16-41c1.7-7.4,3-13.7,4-19
	c1.7-9.6,3.9-36.1,3.9-47c0-8.2,0.5-11.7,2.1-16c1.2-3,3.2-10.2,4.5-16C233,82.9,233.5,64.3,231.1,55.5z M211,105.9
	c-1,4.6-2.6,10.3-3.6,12.7c-1.3,3.4-1.7,6.2-1.7,12.7c0,8.6-1.7,29.6-3.1,37.2c-0.8,4.2-1.8,9.2-3.2,15c-1.8,7.8-8.9,25.6-12.7,32.4
	c-1.2,2-2.5,4.4-3.1,5.5c-1.3,2.5-4.1,6.3-7.3,10.2c-3.1,0.4-5.9-1.3-7.5-4.7c-0.6-1.4-0.7-2.8-0.4-6.5c0.9-9.5,0.9-13.3-0.1-21.4
	c-1.2-10-4.2-15.7-7.3-22.1c-7-14.6-17.8-16.5-22.4-16.5l0,0.1c-0.2,0-0.5-0.1-1-0.1c-0.5,0-0.8,0.1-1,0.1l0-0.1
	c-4.6,0.1-15.4,2-22.4,16.5c-3.1,6.4-6.1,12.1-7.3,22.1c-1,8.1-1,11.9-0.1,21.4c0.3,3.7,0.2,5.1-0.4,6.5c-1.9,4.1-5.5,5.6-9.4,4.2
	c-9-11.5-16.8-26.9-21.1-41.8c-5.1-17.6-6.9-29.8-7.5-50.6c-0.5-13-0.8-15.8-2.5-21c-4.6-14.1-5.4-18.3-5.4-29.7
	c0-10.2,0.9-14.3,4.8-22.5c4.9-10.1,16.1-17.7,31.5-21.4c10.2-2.4,22.9,0.5,33.7,7.6c2.9,1.8,5.8,3.4,6.4,3.4c0.7,0,2.8-1.2,4.7-2.6
	c10-7.4,22.9-10.6,34.1-8.4c19.3,3.9,31.6,14.2,35.8,30.1C213.6,81.3,213.2,96,211,105.9z"/>
<path d="M52.9,121.4H16.3c-5,0-9.1-4.1-9.1-9.1v0c0-5,4.1-9.1,9.1-9.1h36.6c5,0,9.1,4.1,9.1,9.1v0C62,117.4,57.9,121.4,52.9,121.4z"
	/>
<path d="M255.1,121.4h-31.9c-5,0-9.1-4.1-9.1-9.1v0c0-5,4.1-9.1,9.1-9.1h31.9c5,0,9.1,4.1,9.1,9.1v0
	C264.2,117.4,260.1,121.4,255.1,121.4z"/>
<path d="M540.4,389.3 M611.1,192.9c-1,4.6-2.6,10.3-3.6,12.7c-1.3,3.4-1.7,6.2-1.7,12.7c0,8.6-1.7,29.6-3.1,37.2
	c-0.8,4.2-1.8,9.2-3.2,15c-1.8,7.8-8.9,25.6-12.7,32.4c-1.2,2-2.5,4.4-3.1,5.5c-1.3,2.5-4.1,6.3-7.3,10.2c-3.1,0.4-5.9-1.3-7.5-4.7
	c-0.6-1.4-0.7-2.8-0.4-6.5c0.9-9.5,0.9-13.3-0.1-21.4c-1.2-10-4.2-15.7-7.3-22.1c-7-14.6-17.8-16.5-22.4-16.5l0,0.1
	c-0.2,0-0.5-0.1-1-0.1c-0.5,0-0.8,0.1-1,0.1l0-0.1c-4.6,0.1-15.4,2-22.4,16.5c-3.1,6.4-6.1,12.1-7.3,22.1c-1,8.1-1,11.9-0.1,21.4
	c0.3,3.7,0.2,5.1-0.4,6.5c-1.9,4.1-5.5,5.6-9.4,4.2c-9-11.5-16.8-26.9-21.1-41.8c-5.1-17.6-6.9-29.8-7.5-50.6
	c-0.5-13-0.8-15.8-2.5-21c-4.6-14.1-5.4-18.3-5.4-29.7c0-10.2,0.9-14.3,4.8-22.5c4.9-10.1,16.1-17.7,31.5-21.4
	c10.2-2.4,22.9,0.5,33.7,7.6c2.9,1.8,5.8,3.4,6.4,3.4c0.7,0,2.8-1.2,4.7-2.6c10-7.4,22.9-10.6,34.1-8.4
	c19.3,3.9,31.6,14.2,35.8,30.1C613.7,168.3,613.3,183,611.1,192.9z"/>
<rect x="427.7" y="218.4" width="210.7" height="121.7"/>
<path class="st9" d="M68.1,132.6c0.1,2,0.2,4.4,0.3,7.3c0.6,20.8,2.5,33,7.5,50.6c4.3,14.8,12.1,30.3,21.1,41.8
	c3.9,1.4,7.5-0.1,9.4-4.2c0.6-1.4,0.7-2.8,0.4-6.5c-0.9-9.5-0.9-13.3,0.1-21.4c1.2-10,4.2-15.7,7.3-22.1c7-14.6,17.8-16.5,22.4-16.5
	l0,0.1c0.2,0,0.5-0.1,1-0.1c0.5,0,0.8,0.1,1,0.1l0-0.1c4.6,0.1,15.4,2,22.4,16.5c3.1,6.4,6.1,12.1,7.3,22.1c1,8.1,1,11.9,0.1,21.4
	c-0.3,3.7-0.2,5.1,0.4,6.5c1.6,3.4,4.3,5,7.5,4.7c3.2-3.9,6-7.7,7.3-10.2c0.6-1.1,1.9-3.6,3.1-5.5c3.8-6.8,10.8-24.6,12.7-32.4
	c1.3-5.9,2.4-10.8,3.2-15c1.3-7.5,3.1-28.2,3.1-37H68.1z"/>
</svg>
